<?xml version="1.0" encoding="utf-8" standalone="no"?>
<!DOCTYPE svg PUBLIC "-//W3C//DTD SVG 1.1//EN"
  "http://www.w3.org/Graphics/SVG/1.1/DTD/svg11.dtd">
<svg xmlns:xlink="http://www.w3.org/1999/xlink" width="576pt" height="288pt" viewBox="0 0 576 288" xmlns="http://www.w3.org/2000/svg" version="1.1">
 <metadata>
  <rdf:RDF xmlns:dc="http://purl.org/dc/elements/1.1/" xmlns:cc="http://creativecommons.org/ns#" xmlns:rdf="http://www.w3.org/1999/02/22-rdf-syntax-ns#">
   <cc:Work>
    <dc:type rdf:resource="http://purl.org/dc/dcmitype/StillImage"/>
    <dc:date>2023-11-02T17:13:04.577739</dc:date>
    <dc:format>image/svg+xml</dc:format>
    <dc:creator>
     <cc:Agent>
      <dc:title>Matplotlib v3.5.3, https://matplotlib.org/</dc:title>
     </cc:Agent>
    </dc:creator>
   </cc:Work>
  </rdf:RDF>
 </metadata>
 <defs>
  <style type="text/css">*{stroke-linejoin: round; stroke-linecap: butt}</style>
 </defs>
 <g id="figure_1">
  <g id="patch_1">
   <path d="M 0 288 
L 576 288 
L 576 0 
L 0 0 
z
" style="fill: #ffffff"/>
  </g>
  <g id="axes_1">
   <g id="patch_2">
    <path d="M 68.069542 228.265199 
L 552.24 228.265199 
L 552.24 23.76 
L 68.069542 23.76 
z
" style="fill: #ffffff"/>
   </g>
   <g id="PathCollection_1">
    <defs>
     <path id="m99656bf8fd" d="M 0 3 
C 0.795609 3 1.55874 2.683901 2.12132 2.12132 
C 2.683901 1.55874 3 0.795609 3 0 
C 3 -0.795609 2.683901 -1.55874 2.12132 -2.12132 
C 1.55874 -2.683901 0.795609 -3 0 -3 
C -0.795609 -3 -1.55874 -2.683901 -2.12132 -2.12132 
C -2.683901 -1.55874 -3 -0.795609 -3 0 
C -3 0.795609 -2.683901 1.55874 -2.12132 2.12132 
C -1.55874 2.683901 -0.795609 3 0 3 
z
" style="stroke: #808080"/>
    </defs>
    <g clip-path="url(#pdf03f43112)">
     <use xlink:href="#m99656bf8fd" x="90.166157" y="186.479715" style="fill: #808080; stroke: #808080"/>
    </g>
   </g>
   <g id="PathCollection_2">
    <defs>
     <path id="m963a302332" d="M 0 3 
C 0.795609 3 1.55874 2.683901 2.12132 2.12132 
C 2.683901 1.55874 3 0.795609 3 0 
C 3 -0.795609 2.683901 -1.55874 2.12132 -2.12132 
C 1.55874 -2.683901 0.795609 -3 0 -3 
C -0.795609 -3 -1.55874 -2.683901 -2.12132 -2.12132 
C -2.683901 -1.55874 -3 -0.795609 -3 0 
C -3 0.795609 -2.683901 1.55874 -2.12132 2.12132 
C -1.55874 2.683901 -0.795609 3 0 3 
z
" style="stroke: #0000ff"/>
    </defs>
    <g clip-path="url(#pdf03f43112)">
     <use xlink:href="#m963a302332" x="90.07729" y="177.454773" style="fill: #0000ff; stroke: #0000ff"/>
    </g>
   </g>
   <g id="PathCollection_3">
    <defs>
     <path id="me37d5e97f4" d="M 0 3 
C 0.795609 3 1.55874 2.683901 2.12132 2.12132 
C 2.683901 1.55874 3 0.795609 3 0 
C 3 -0.795609 2.683901 -1.55874 2.12132 -2.12132 
C 1.55874 -2.683901 0.795609 -3 0 -3 
C -0.795609 -3 -1.55874 -2.683901 -2.12132 -2.12132 
C -2.683901 -1.55874 -3 -0.795609 -3 0 
C -3 0.795609 -2.683901 1.55874 -2.12132 2.12132 
C -1.55874 2.683901 -0.795609 3 0 3 
z
" style="stroke: #008000"/>
    </defs>
    <g clip-path="url(#pdf03f43112)">
     <use xlink:href="#me37d5e97f4" x="92.387815" y="177.454773" style="fill: #008000; stroke: #008000"/>
    </g>
   </g>
   <g id="PathCollection_4">
    <defs>
     <path id="m48f666ae70" d="M 0 3 
C 0.795609 3 1.55874 2.683901 2.12132 2.12132 
C 2.683901 1.55874 3 0.795609 3 0 
C 3 -0.795609 2.683901 -1.55874 2.12132 -2.12132 
C 1.55874 -2.683901 0.795609 -3 0 -3 
C -0.795609 -3 -1.55874 -2.683901 -2.12132 -2.12132 
C -2.683901 -1.55874 -3 -0.795609 -3 0 
C -3 0.795609 -2.683901 1.55874 -2.12132 2.12132 
C -1.55874 2.683901 -0.795609 3 0 3 
z
" style="stroke: #ffa500"/>
    </defs>
    <g clip-path="url(#pdf03f43112)">
     <use xlink:href="#m48f666ae70" x="95.40927" y="195.504658" style="fill: #ffa500; stroke: #ffa500"/>
    </g>
   </g>
   <g id="PathCollection_5">
    <defs>
     <path id="m72bc4b3e5c" d="M 0 3 
C 0.795609 3 1.55874 2.683901 2.12132 2.12132 
C 2.683901 1.55874 3 0.795609 3 0 
C 3 -0.795609 2.683901 -1.55874 2.12132 -2.12132 
C 1.55874 -2.683901 0.795609 -3 0 -3 
C -0.795609 -3 -1.55874 -2.683901 -2.12132 -2.12132 
C -2.683901 -1.55874 -3 -0.795609 -3 0 
C -3 0.795609 -2.683901 1.55874 -2.12132 2.12132 
C -1.55874 2.683901 -0.795609 3 0 3 
z
" style="stroke: #ff0000"/>
    </defs>
    <g clip-path="url(#pdf03f43112)">
     <use xlink:href="#m72bc4b3e5c" x="90.699355" y="195.504658" style="fill: #ff0000; stroke: #ff0000"/>
    </g>
   </g>
   <g id="PathCollection_6">
    <defs>
     <path id="mb643daea2e" d="M 0 3 
C 0.795609 3 1.55874 2.683901 2.12132 2.12132 
C 2.683901 1.55874 3 0.795609 3 0 
C 3 -0.795609 2.683901 -1.55874 2.12132 -2.12132 
C 1.55874 -2.683901 0.795609 -3 0 -3 
C -0.795609 -3 -1.55874 -2.683901 -2.12132 -2.12132 
C -2.683901 -1.55874 -3 -0.795609 -3 0 
C -3 0.795609 -2.683901 1.55874 -2.12132 2.12132 
C -1.55874 2.683901 -0.795609 3 0 3 
z
" style="stroke: #800080"/>
    </defs>
    <g clip-path="url(#pdf03f43112)">
     <use xlink:href="#mb643daea2e" x="90.788221" y="87.205347" style="fill: #800080; stroke: #800080"/>
    </g>
   </g>
   <g id="PathCollection_7">
    <g clip-path="url(#pdf03f43112)">
     <use xlink:href="#m99656bf8fd" x="90.166157" y="211.388557" style="fill: #808080; stroke: #808080"/>
    </g>
   </g>
   <g id="PathCollection_8">
    <g clip-path="url(#pdf03f43112)">
     <use xlink:href="#m963a302332" x="90.07729" y="209.042072" style="fill: #0000ff; stroke: #0000ff"/>
    </g>
   </g>
   <g id="PathCollection_9">
    <g clip-path="url(#pdf03f43112)">
     <use xlink:href="#me37d5e97f4" x="92.387815" y="209.944566" style="fill: #008000; stroke: #008000"/>
    </g>
   </g>
   <g id="PathCollection_10">
    <g clip-path="url(#pdf03f43112)"/>
   </g>
   <g id="PathCollection_11">
    <g clip-path="url(#pdf03f43112)"/>
   </g>
   <g id="PathCollection_12">
    <g clip-path="url(#pdf03f43112)"/>
   </g>
   <g id="PathCollection_13">
    <g clip-path="url(#pdf03f43112)">
     <use xlink:href="#m99656bf8fd" x="90.166157" y="177.454773" style="fill: #808080; stroke: #808080"/>
    </g>
   </g>
   <g id="PathCollection_14">
    <g clip-path="url(#pdf03f43112)">
     <use xlink:href="#m963a302332" x="90.07729" y="69.155461" style="fill: #0000ff; stroke: #0000ff"/>
    </g>
   </g>
   <g id="PathCollection_15">
    <g clip-path="url(#pdf03f43112)">
     <use xlink:href="#me37d5e97f4" x="92.387815" y="202.724612" style="fill: #008000; stroke: #008000"/>
    </g>
   </g>
   <g id="PathCollection_16">
    <g clip-path="url(#pdf03f43112)">
     <use xlink:href="#m48f666ae70" x="95.40927" y="209.944566" style="fill: #ffa500; stroke: #ffa500"/>
    </g>
   </g>
   <g id="PathCollection_17">
    <g clip-path="url(#pdf03f43112)">
     <use xlink:href="#m72bc4b3e5c" x="90.699355" y="206.334589" style="fill: #ff0000; stroke: #ff0000"/>
    </g>
   </g>
   <g id="PathCollection_18">
    <g clip-path="url(#pdf03f43112)"/>
   </g>
   <g id="PathCollection_19">
    <g clip-path="url(#pdf03f43112)">
     <use xlink:href="#m99656bf8fd" x="90.166157" y="177.454773" style="fill: #808080; stroke: #808080"/>
    </g>
   </g>
   <g id="PathCollection_20">
    <g clip-path="url(#pdf03f43112)">
     <use xlink:href="#m963a302332" x="90.07729" y="177.454773" style="fill: #0000ff; stroke: #0000ff"/>
    </g>
   </g>
   <g id="PathCollection_21">
    <g clip-path="url(#pdf03f43112)">
     <use xlink:href="#me37d5e97f4" x="92.387815" y="208.139577" style="fill: #008000; stroke: #008000"/>
    </g>
   </g>
   <g id="PathCollection_22">
    <g clip-path="url(#pdf03f43112)">
     <use xlink:href="#m48f666ae70" x="95.40927" y="211.749554" style="fill: #ffa500; stroke: #ffa500"/>
    </g>
   </g>
   <g id="PathCollection_23">
    <g clip-path="url(#pdf03f43112)">
     <use xlink:href="#m72bc4b3e5c" x="90.699355" y="200.919623" style="fill: #ff0000; stroke: #ff0000"/>
    </g>
   </g>
   <g id="PathCollection_24">
    <g clip-path="url(#pdf03f43112)">
     <use xlink:href="#mb643daea2e" x="90.788221" y="209.944566" style="fill: #800080; stroke: #800080"/>
    </g>
   </g>
   <g id="PathCollection_25">
    <g clip-path="url(#pdf03f43112)">
     <use xlink:href="#m99656bf8fd" x="90.166157" y="33.055691" style="fill: #808080; stroke: #808080"/>
    </g>
   </g>
   <g id="PathCollection_26">
    <g clip-path="url(#pdf03f43112)">
     <use xlink:href="#m963a302332" x="90.07729" y="69.155461" style="fill: #0000ff; stroke: #0000ff"/>
    </g>
   </g>
   <g id="PathCollection_27">
    <g clip-path="url(#pdf03f43112)">
     <use xlink:href="#me37d5e97f4" x="92.387815" y="199.114635" style="fill: #008000; stroke: #008000"/>
    </g>
   </g>
   <g id="PathCollection_28">
    <g clip-path="url(#pdf03f43112)">
     <use xlink:href="#m48f666ae70" x="95.40927" y="195.504658" style="fill: #ffa500; stroke: #ffa500"/>
    </g>
   </g>
   <g id="PathCollection_29">
    <g clip-path="url(#pdf03f43112)">
     <use xlink:href="#m72bc4b3e5c" x="90.699355" y="159.404887" style="fill: #ff0000; stroke: #ff0000"/>
    </g>
   </g>
   <g id="PathCollection_30">
    <g clip-path="url(#pdf03f43112)">
     <use xlink:href="#mb643daea2e" x="90.788221" y="204.5296" style="fill: #800080; stroke: #800080"/>
    </g>
   </g>
   <g id="PathCollection_31">
    <g clip-path="url(#pdf03f43112)">
     <use xlink:href="#m99656bf8fd" x="90.166157" y="218.969509" style="fill: #808080; stroke: #808080"/>
    </g>
   </g>
   <g id="PathCollection_32">
    <g clip-path="url(#pdf03f43112)">
     <use xlink:href="#m963a302332" x="90.07729" y="214.09604" style="fill: #0000ff; stroke: #0000ff"/>
    </g>
   </g>
   <g id="PathCollection_33">
    <g clip-path="url(#pdf03f43112)">
     <use xlink:href="#me37d5e97f4" x="92.387815" y="213.735042" style="fill: #008000; stroke: #008000"/>
    </g>
   </g>
   <g id="PathCollection_34">
    <g clip-path="url(#pdf03f43112)">
     <use xlink:href="#m48f666ae70" x="95.40927" y="211.930053" style="fill: #ffa500; stroke: #ffa500"/>
    </g>
   </g>
   <g id="PathCollection_35">
    <g clip-path="url(#pdf03f43112)">
     <use xlink:href="#m72bc4b3e5c" x="90.699355" y="209.042072" style="fill: #ff0000; stroke: #ff0000"/>
    </g>
   </g>
   <g id="PathCollection_36">
    <g clip-path="url(#pdf03f43112)">
     <use xlink:href="#mb643daea2e" x="90.788221" y="195.504658" style="fill: #800080; stroke: #800080"/>
    </g>
   </g>
   <g id="PathCollection_37">
    <g clip-path="url(#pdf03f43112)">
     <use xlink:href="#m99656bf8fd" x="351.610917" y="186.479715" style="fill: #808080; stroke: #808080"/>
    </g>
   </g>
   <g id="PathCollection_38">
    <g clip-path="url(#pdf03f43112)">
     <use xlink:href="#m963a302332" x="352.49958" y="177.454773" style="fill: #0000ff; stroke: #0000ff"/>
    </g>
   </g>
   <g id="PathCollection_39">
    <g clip-path="url(#pdf03f43112)">
     <use xlink:href="#me37d5e97f4" x="358.542491" y="177.454773" style="fill: #008000; stroke: #008000"/>
    </g>
   </g>
   <g id="PathCollection_40">
    <g clip-path="url(#pdf03f43112)">
     <use xlink:href="#m48f666ae70" x="367.606857" y="195.504658" style="fill: #ffa500; stroke: #ffa500"/>
    </g>
   </g>
   <g id="PathCollection_41">
    <g clip-path="url(#pdf03f43112)">
     <use xlink:href="#m72bc4b3e5c" x="360.49755" y="195.504658" style="fill: #ff0000; stroke: #ff0000"/>
    </g>
   </g>
   <g id="PathCollection_42">
    <g clip-path="url(#pdf03f43112)">
     <use xlink:href="#mb643daea2e" x="530.232252" y="87.205347" style="fill: #800080; stroke: #800080"/>
    </g>
   </g>
   <g id="PathCollection_43">
    <g clip-path="url(#pdf03f43112)">
     <use xlink:href="#m99656bf8fd" x="351.610917" y="211.388557" style="fill: #808080; stroke: #808080"/>
    </g>
   </g>
   <g id="PathCollection_44">
    <g clip-path="url(#pdf03f43112)">
     <use xlink:href="#m963a302332" x="352.49958" y="209.042072" style="fill: #0000ff; stroke: #0000ff"/>
    </g>
   </g>
   <g id="PathCollection_45">
    <g clip-path="url(#pdf03f43112)">
     <use xlink:href="#me37d5e97f4" x="358.542491" y="209.944566" style="fill: #008000; stroke: #008000"/>
    </g>
   </g>
   <g id="PathCollection_46">
    <g clip-path="url(#pdf03f43112)"/>
   </g>
   <g id="PathCollection_47">
    <g clip-path="url(#pdf03f43112)"/>
   </g>
   <g id="PathCollection_48">
    <g clip-path="url(#pdf03f43112)"/>
   </g>
   <g id="PathCollection_49">
    <g clip-path="url(#pdf03f43112)">
     <use xlink:href="#m99656bf8fd" x="351.610917" y="177.454773" style="fill: #808080; stroke: #808080"/>
    </g>
   </g>
   <g id="PathCollection_50">
    <g clip-path="url(#pdf03f43112)">
     <use xlink:href="#m963a302332" x="352.49958" y="69.155461" style="fill: #0000ff; stroke: #0000ff"/>
    </g>
   </g>
   <g id="PathCollection_51">
    <g clip-path="url(#pdf03f43112)">
     <use xlink:href="#me37d5e97f4" x="358.542491" y="202.724612" style="fill: #008000; stroke: #008000"/>
    </g>
   </g>
   <g id="PathCollection_52">
    <g clip-path="url(#pdf03f43112)">
     <use xlink:href="#m48f666ae70" x="367.606857" y="209.944566" style="fill: #ffa500; stroke: #ffa500"/>
    </g>
   </g>
   <g id="PathCollection_53">
    <g clip-path="url(#pdf03f43112)">
     <use xlink:href="#m72bc4b3e5c" x="360.49755" y="206.334589" style="fill: #ff0000; stroke: #ff0000"/>
    </g>
   </g>
   <g id="PathCollection_54">
    <g clip-path="url(#pdf03f43112)"/>
   </g>
   <g id="PathCollection_55">
    <g clip-path="url(#pdf03f43112)">
     <use xlink:href="#m99656bf8fd" x="351.610917" y="177.454773" style="fill: #808080; stroke: #808080"/>
    </g>
   </g>
   <g id="PathCollection_56">
    <g clip-path="url(#pdf03f43112)">
     <use xlink:href="#m963a302332" x="352.49958" y="177.454773" style="fill: #0000ff; stroke: #0000ff"/>
    </g>
   </g>
   <g id="PathCollection_57">
    <g clip-path="url(#pdf03f43112)">
     <use xlink:href="#me37d5e97f4" x="358.542491" y="208.139577" style="fill: #008000; stroke: #008000"/>
    </g>
   </g>
   <g id="PathCollection_58">
    <g clip-path="url(#pdf03f43112)">
     <use xlink:href="#m48f666ae70" x="367.606857" y="211.749554" style="fill: #ffa500; stroke: #ffa500"/>
    </g>
   </g>
   <g id="PathCollection_59">
    <g clip-path="url(#pdf03f43112)">
     <use xlink:href="#m72bc4b3e5c" x="360.49755" y="200.919623" style="fill: #ff0000; stroke: #ff0000"/>
    </g>
   </g>
   <g id="PathCollection_60">
    <g clip-path="url(#pdf03f43112)">
     <use xlink:href="#mb643daea2e" x="530.232252" y="209.944566" style="fill: #800080; stroke: #800080"/>
    </g>
   </g>
   <g id="PathCollection_61">
    <g clip-path="url(#pdf03f43112)">
     <use xlink:href="#m99656bf8fd" x="351.610917" y="33.055691" style="fill: #808080; stroke: #808080"/>
    </g>
   </g>
   <g id="PathCollection_62">
    <g clip-path="url(#pdf03f43112)">
     <use xlink:href="#m963a302332" x="352.49958" y="69.155461" style="fill: #0000ff; stroke: #0000ff"/>
    </g>
   </g>
   <g id="PathCollection_63">
    <g clip-path="url(#pdf03f43112)">
     <use xlink:href="#me37d5e97f4" x="358.542491" y="199.114635" style="fill: #008000; stroke: #008000"/>
    </g>
   </g>
   <g id="PathCollection_64">
    <g clip-path="url(#pdf03f43112)">
     <use xlink:href="#m48f666ae70" x="367.606857" y="195.504658" style="fill: #ffa500; stroke: #ffa500"/>
    </g>
   </g>
   <g id="PathCollection_65">
    <g clip-path="url(#pdf03f43112)">
     <use xlink:href="#m72bc4b3e5c" x="360.49755" y="159.404887" style="fill: #ff0000; stroke: #ff0000"/>
    </g>
   </g>
   <g id="PathCollection_66">
    <g clip-path="url(#pdf03f43112)">
     <use xlink:href="#mb643daea2e" x="530.232252" y="204.5296" style="fill: #800080; stroke: #800080"/>
    </g>
   </g>
   <g id="PathCollection_67">
    <g clip-path="url(#pdf03f43112)">
     <use xlink:href="#m99656bf8fd" x="351.610917" y="218.969509" style="fill: #808080; stroke: #808080"/>
    </g>
   </g>
   <g id="PathCollection_68">
    <g clip-path="url(#pdf03f43112)">
     <use xlink:href="#m963a302332" x="352.49958" y="214.09604" style="fill: #0000ff; stroke: #0000ff"/>
    </g>
   </g>
   <g id="PathCollection_69">
    <g clip-path="url(#pdf03f43112)">
     <use xlink:href="#me37d5e97f4" x="358.542491" y="213.735042" style="fill: #008000; stroke: #008000"/>
    </g>
   </g>
   <g id="PathCollection_70">
    <g clip-path="url(#pdf03f43112)">
     <use xlink:href="#m48f666ae70" x="367.606857" y="211.930053" style="fill: #ffa500; stroke: #ffa500"/>
    </g>
   </g>
   <g id="PathCollection_71">
    <g clip-path="url(#pdf03f43112)">
     <use xlink:href="#m72bc4b3e5c" x="360.49755" y="209.042072" style="fill: #ff0000; stroke: #ff0000"/>
    </g>
   </g>
   <g id="PathCollection_72">
    <g clip-path="url(#pdf03f43112)">
     <use xlink:href="#mb643daea2e" x="530.232252" y="195.504658" style="fill: #800080; stroke: #800080"/>
    </g>
   </g>
   <g id="PathCollection_73">
    <g clip-path="url(#pdf03f43112)">
     <use xlink:href="#m99656bf8fd" x="104.917968" y="186.479715" style="fill: #808080; stroke: #808080"/>
    </g>
   </g>
   <g id="PathCollection_74">
    <g clip-path="url(#pdf03f43112)">
     <use xlink:href="#m963a302332" x="102.69631" y="177.454773" style="fill: #0000ff; stroke: #0000ff"/>
    </g>
   </g>
   <g id="PathCollection_75">
    <g clip-path="url(#pdf03f43112)">
     <use xlink:href="#me37d5e97f4" x="133.444062" y="177.454773" style="fill: #008000; stroke: #008000"/>
    </g>
   </g>
   <g id="PathCollection_76">
    <g clip-path="url(#pdf03f43112)">
     <use xlink:href="#m48f666ae70" x="176.544235" y="195.504658" style="fill: #ffa500; stroke: #ffa500"/>
    </g>
   </g>
   <g id="PathCollection_77">
    <g clip-path="url(#pdf03f43112)">
     <use xlink:href="#m72bc4b3e5c" x="116.115127" y="195.504658" style="fill: #ff0000; stroke: #ff0000"/>
    </g>
   </g>
   <g id="PathCollection_78">
    <g clip-path="url(#pdf03f43112)">
     <use xlink:href="#mb643daea2e" x="125.00176" y="87.205347" style="fill: #800080; stroke: #800080"/>
    </g>
   </g>
   <g id="PathCollection_79">
    <g clip-path="url(#pdf03f43112)">
     <use xlink:href="#m99656bf8fd" x="104.917968" y="211.388557" style="fill: #808080; stroke: #808080"/>
    </g>
   </g>
   <g id="PathCollection_80">
    <g clip-path="url(#pdf03f43112)">
     <use xlink:href="#m963a302332" x="102.69631" y="209.042072" style="fill: #0000ff; stroke: #0000ff"/>
    </g>
   </g>
   <g id="PathCollection_81">
    <g clip-path="url(#pdf03f43112)">
     <use xlink:href="#me37d5e97f4" x="133.444062" y="209.944566" style="fill: #008000; stroke: #008000"/>
    </g>
   </g>
   <g id="PathCollection_82">
    <g clip-path="url(#pdf03f43112)"/>
   </g>
   <g id="PathCollection_83">
    <g clip-path="url(#pdf03f43112)"/>
   </g>
   <g id="PathCollection_84">
    <g clip-path="url(#pdf03f43112)"/>
   </g>
   <g id="PathCollection_85">
    <g clip-path="url(#pdf03f43112)">
     <use xlink:href="#m99656bf8fd" x="104.917968" y="177.454773" style="fill: #808080; stroke: #808080"/>
    </g>
   </g>
   <g id="PathCollection_86">
    <g clip-path="url(#pdf03f43112)">
     <use xlink:href="#m963a302332" x="102.69631" y="69.155461" style="fill: #0000ff; stroke: #0000ff"/>
    </g>
   </g>
   <g id="PathCollection_87">
    <g clip-path="url(#pdf03f43112)">
     <use xlink:href="#me37d5e97f4" x="133.444062" y="202.724612" style="fill: #008000; stroke: #008000"/>
    </g>
   </g>
   <g id="PathCollection_88">
    <g clip-path="url(#pdf03f43112)">
     <use xlink:href="#m48f666ae70" x="176.544235" y="209.944566" style="fill: #ffa500; stroke: #ffa500"/>
    </g>
   </g>
   <g id="PathCollection_89">
    <g clip-path="url(#pdf03f43112)">
     <use xlink:href="#m72bc4b3e5c" x="116.115127" y="206.334589" style="fill: #ff0000; stroke: #ff0000"/>
    </g>
   </g>
   <g id="PathCollection_90">
    <g clip-path="url(#pdf03f43112)"/>
   </g>
   <g id="PathCollection_91">
    <g clip-path="url(#pdf03f43112)">
     <use xlink:href="#m99656bf8fd" x="104.917968" y="177.454773" style="fill: #808080; stroke: #808080"/>
    </g>
   </g>
   <g id="PathCollection_92">
    <g clip-path="url(#pdf03f43112)">
     <use xlink:href="#m963a302332" x="102.69631" y="177.454773" style="fill: #0000ff; stroke: #0000ff"/>
    </g>
   </g>
   <g id="PathCollection_93">
    <g clip-path="url(#pdf03f43112)">
     <use xlink:href="#me37d5e97f4" x="133.444062" y="208.139577" style="fill: #008000; stroke: #008000"/>
    </g>
   </g>
   <g id="PathCollection_94">
    <g clip-path="url(#pdf03f43112)">
     <use xlink:href="#m48f666ae70" x="176.544235" y="211.749554" style="fill: #ffa500; stroke: #ffa500"/>
    </g>
   </g>
   <g id="PathCollection_95">
    <g clip-path="url(#pdf03f43112)">
     <use xlink:href="#m72bc4b3e5c" x="116.115127" y="200.919623" style="fill: #ff0000; stroke: #ff0000"/>
    </g>
   </g>
   <g id="PathCollection_96">
    <g clip-path="url(#pdf03f43112)">
     <use xlink:href="#mb643daea2e" x="125.00176" y="209.944566" style="fill: #800080; stroke: #800080"/>
    </g>
   </g>
   <g id="PathCollection_97">
    <g clip-path="url(#pdf03f43112)">
     <use xlink:href="#m99656bf8fd" x="104.917968" y="33.055691" style="fill: #808080; stroke: #808080"/>
    </g>
   </g>
   <g id="PathCollection_98">
    <g clip-path="url(#pdf03f43112)">
     <use xlink:href="#m963a302332" x="102.69631" y="69.155461" style="fill: #0000ff; stroke: #0000ff"/>
    </g>
   </g>
   <g id="PathCollection_99">
    <g clip-path="url(#pdf03f43112)">
     <use xlink:href="#me37d5e97f4" x="133.444062" y="199.114635" style="fill: #008000; stroke: #008000"/>
    </g>
   </g>
   <g id="PathCollection_100">
    <g clip-path="url(#pdf03f43112)">
     <use xlink:href="#m48f666ae70" x="176.544235" y="195.504658" style="fill: #ffa500; stroke: #ffa500"/>
    </g>
   </g>
   <g id="PathCollection_101">
    <g clip-path="url(#pdf03f43112)">
     <use xlink:href="#m72bc4b3e5c" x="116.115127" y="159.404887" style="fill: #ff0000; stroke: #ff0000"/>
    </g>
   </g>
   <g id="PathCollection_102">
    <g clip-path="url(#pdf03f43112)">
     <use xlink:href="#mb643daea2e" x="125.00176" y="204.5296" style="fill: #800080; stroke: #800080"/>
    </g>
   </g>
   <g id="PathCollection_103">
    <g clip-path="url(#pdf03f43112)">
     <use xlink:href="#m99656bf8fd" x="104.917968" y="218.969509" style="fill: #808080; stroke: #808080"/>
    </g>
   </g>
   <g id="PathCollection_104">
    <g clip-path="url(#pdf03f43112)">
     <use xlink:href="#m963a302332" x="102.69631" y="214.09604" style="fill: #0000ff; stroke: #0000ff"/>
    </g>
   </g>
   <g id="PathCollection_105">
    <g clip-path="url(#pdf03f43112)">
     <use xlink:href="#me37d5e97f4" x="133.444062" y="213.735042" style="fill: #008000; stroke: #008000"/>
    </g>
   </g>
   <g id="PathCollection_106">
    <g clip-path="url(#pdf03f43112)">
     <use xlink:href="#m48f666ae70" x="176.544235" y="211.930053" style="fill: #ffa500; stroke: #ffa500"/>
    </g>
   </g>
   <g id="PathCollection_107">
    <g clip-path="url(#pdf03f43112)">
     <use xlink:href="#m72bc4b3e5c" x="116.115127" y="209.042072" style="fill: #ff0000; stroke: #ff0000"/>
    </g>
   </g>
   <g id="PathCollection_108">
    <g clip-path="url(#pdf03f43112)">
     <use xlink:href="#mb643daea2e" x="125.00176" y="195.504658" style="fill: #800080; stroke: #800080"/>
    </g>
   </g>
   <g id="matplotlib.axis_1">
    <g id="xtick_1">
     <g id="line2d_1">
      <defs>
       <path id="m5374bfe982" d="M 0 0 
L 0 3.5 
" style="stroke: #000000; stroke-width: 0.8"/>
      </defs>
      <g>
       <use xlink:href="#m5374bfe982" x="88.566563" y="228.265199" style="stroke: #000000; stroke-width: 0.8"/>
      </g>
     </g>
     <g id="text_1">
      <!-- $\mathdefault{0}$ -->
      <g transform="translate(82.855253 252.561453)scale(0.25 -0.25)">
       <defs>
        <path id="CMR17-30" d="M 2688 2025 
C 2688 2416 2682 3080 2413 3591 
C 2176 4039 1798 4198 1466 4198 
C 1158 4198 768 4058 525 3597 
C 269 3118 243 2524 243 2025 
C 243 1661 250 1106 448 619 
C 723 -39 1216 -128 1466 -128 
C 1760 -128 2208 -7 2470 600 
C 2662 1042 2688 1559 2688 2025 
z
M 1466 -26 
C 1056 -26 813 325 723 812 
C 653 1188 653 1738 653 2096 
C 653 2588 653 2997 736 3387 
C 858 3929 1216 4096 1466 4096 
C 1728 4096 2067 3923 2189 3400 
C 2272 3036 2278 2607 2278 2096 
C 2278 1680 2278 1169 2202 792 
C 2067 95 1690 -26 1466 -26 
z
" transform="scale(0.015625)"/>
       </defs>
       <use xlink:href="#CMR17-30" transform="scale(0.996264)"/>
      </g>
     </g>
    </g>
    <g id="xtick_2">
     <g id="line2d_2">
      <g>
       <use xlink:href="#m5374bfe982" x="177.432898" y="228.265199" style="stroke: #000000; stroke-width: 0.8"/>
      </g>
     </g>
     <g id="text_2">
      <!-- $\mathdefault{1}$ -->
      <g transform="translate(171.721589 252.561453)scale(0.25 -0.25)">
       <defs>
        <path id="CMR17-31" d="M 1702 4058 
C 1702 4192 1696 4192 1606 4192 
C 1357 3916 979 3827 621 3827 
C 602 3827 570 3827 563 3808 
C 557 3795 557 3782 557 3648 
C 755 3648 1088 3686 1344 3839 
L 1344 461 
C 1344 236 1331 160 781 160 
L 589 160 
L 589 0 
C 896 0 1216 0 1523 0 
C 1830 0 2150 0 2458 0 
L 2458 160 
L 2266 160 
C 1715 160 1702 230 1702 458 
L 1702 4058 
z
" transform="scale(0.015625)"/>
       </defs>
       <use xlink:href="#CMR17-31" transform="scale(0.996264)"/>
      </g>
     </g>
    </g>
    <g id="xtick_3">
     <g id="line2d_3">
      <g>
       <use xlink:href="#m5374bfe982" x="266.299234" y="228.265199" style="stroke: #000000; stroke-width: 0.8"/>
      </g>
     </g>
     <g id="text_3">
      <!-- $\mathdefault{2}$ -->
      <g transform="translate(260.587925 252.561453)scale(0.25 -0.25)">
       <defs>
        <path id="CMR17-32" d="M 2669 989 
L 2554 989 
C 2490 536 2438 459 2413 420 
C 2381 369 1920 369 1830 369 
L 602 369 
C 832 619 1280 1072 1824 1597 
C 2214 1967 2669 2402 2669 3035 
C 2669 3790 2067 4224 1395 4224 
C 691 4224 262 3604 262 3030 
C 262 2780 448 2748 525 2748 
C 589 2748 781 2787 781 3010 
C 781 3207 614 3264 525 3264 
C 486 3264 448 3258 422 3245 
C 544 3790 915 4058 1306 4058 
C 1862 4058 2227 3617 2227 3035 
C 2227 2479 1901 2000 1536 1584 
L 262 146 
L 262 0 
L 2515 0 
L 2669 989 
z
" transform="scale(0.015625)"/>
       </defs>
       <use xlink:href="#CMR17-32" transform="scale(0.996264)"/>
      </g>
     </g>
    </g>
    <g id="xtick_4">
     <g id="line2d_4">
      <g>
       <use xlink:href="#m5374bfe982" x="355.16557" y="228.265199" style="stroke: #000000; stroke-width: 0.8"/>
      </g>
     </g>
     <g id="text_4">
      <!-- $\mathdefault{3}$ -->
      <g transform="translate(349.454261 252.561453)scale(0.25 -0.25)">
       <defs>
        <path id="CMR17-33" d="M 1414 2157 
C 1984 2157 2234 1662 2234 1090 
C 2234 320 1824 25 1453 25 
C 1114 25 563 194 390 693 
C 422 680 454 680 486 680 
C 640 680 755 782 755 948 
C 755 1133 614 1216 486 1216 
C 378 1216 211 1165 211 926 
C 211 335 787 -128 1466 -128 
C 2176 -128 2720 430 2720 1085 
C 2720 1707 2208 2157 1600 2227 
C 2086 2328 2554 2756 2554 3329 
C 2554 3820 2048 4179 1472 4179 
C 890 4179 378 3829 378 3329 
C 378 3110 544 3072 627 3072 
C 762 3072 877 3155 877 3321 
C 877 3486 762 3569 627 3569 
C 602 3569 570 3569 544 3557 
C 730 3959 1235 4032 1459 4032 
C 1683 4032 2106 3925 2106 3320 
C 2106 3143 2080 2828 1862 2550 
C 1670 2304 1453 2304 1242 2284 
C 1210 2284 1062 2269 1037 2269 
C 992 2263 966 2257 966 2208 
C 966 2163 973 2157 1101 2157 
L 1414 2157 
z
" transform="scale(0.015625)"/>
       </defs>
       <use xlink:href="#CMR17-33" transform="scale(0.996264)"/>
      </g>
     </g>
    </g>
    <g id="xtick_5">
     <g id="line2d_5">
      <g>
       <use xlink:href="#m5374bfe982" x="444.031906" y="228.265199" style="stroke: #000000; stroke-width: 0.8"/>
      </g>
     </g>
     <g id="text_5">
      <!-- $\mathdefault{4}$ -->
      <g transform="translate(438.320596 252.561453)scale(0.25 -0.25)">
       <defs>
        <path id="CMR17-34" d="M 2150 4122 
C 2150 4256 2144 4256 2029 4256 
L 128 1254 
L 128 1088 
L 1779 1088 
L 1779 457 
C 1779 224 1766 160 1318 160 
L 1197 160 
L 1197 0 
C 1402 0 1747 0 1965 0 
C 2182 0 2528 0 2733 0 
L 2733 160 
L 2611 160 
C 2163 160 2150 224 2150 457 
L 2150 1088 
L 2803 1088 
L 2803 1254 
L 2150 1254 
L 2150 4122 
z
M 1798 3703 
L 1798 1254 
L 256 1254 
L 1798 3703 
z
" transform="scale(0.015625)"/>
       </defs>
       <use xlink:href="#CMR17-34" transform="scale(0.996264)"/>
      </g>
     </g>
    </g>
    <g id="xtick_6">
     <g id="line2d_6">
      <g>
       <use xlink:href="#m5374bfe982" x="532.898242" y="228.265199" style="stroke: #000000; stroke-width: 0.8"/>
      </g>
     </g>
     <g id="text_6">
      <!-- $\mathdefault{5}$ -->
      <g transform="translate(527.186932 252.561453)scale(0.25 -0.25)">
       <defs>
        <path id="CMR17-35" d="M 730 3692 
C 794 3666 1056 3584 1325 3584 
C 1920 3584 2246 3911 2432 4100 
C 2432 4157 2432 4192 2394 4192 
C 2387 4192 2374 4192 2323 4163 
C 2099 4058 1837 3973 1517 3973 
C 1325 3973 1037 3999 723 4139 
C 653 4171 640 4171 634 4171 
C 602 4171 595 4164 595 4037 
L 595 2203 
C 595 2089 595 2057 659 2057 
C 691 2057 704 2070 736 2114 
C 941 2401 1222 2522 1542 2522 
C 1766 2522 2246 2382 2246 1289 
C 2246 1085 2246 715 2054 421 
C 1894 159 1645 25 1370 25 
C 947 25 518 320 403 814 
C 429 807 480 795 506 795 
C 589 795 749 840 749 1038 
C 749 1210 627 1280 506 1280 
C 358 1280 262 1190 262 1011 
C 262 454 704 -128 1382 -128 
C 2042 -128 2669 440 2669 1264 
C 2669 2030 2170 2624 1549 2624 
C 1222 2624 947 2503 730 2274 
L 730 3692 
z
" transform="scale(0.015625)"/>
       </defs>
       <use xlink:href="#CMR17-35" transform="scale(0.996264)"/>
      </g>
     </g>
    </g>
    <g id="text_7">
     <!-- $\sigma_{\beta}$ -->
     <g transform="translate(299.815347 274.618981)scale(0.22 -0.22)">
      <defs>
       <path id="CMMI12-1b" d="M 3251 2408 
C 3334 2408 3546 2408 3546 2612 
C 3546 2752 3424 2752 3309 2752 
L 1894 2752 
C 934 2752 243 1686 243 932 
C 243 390 595 -64 1171 -64 
C 1926 -64 2752 747 2752 1705 
C 2752 1954 2694 2196 2541 2408 
L 3251 2408 
z
M 1178 64 
C 851 64 614 313 614 754 
C 614 1137 845 2408 1786 2408 
C 2061 2408 2368 2274 2368 1781 
C 2368 1558 2266 1021 2042 652 
C 1811 275 1466 64 1178 64 
z
" transform="scale(0.015625)"/>
       <path id="CMMI12-c" d="M 3622 3701 
C 3622 4081 3296 4480 2714 4480 
C 1888 4480 1363 3477 1197 2816 
L 186 -1172 
C 173 -1223 211 -1236 243 -1236 
C 288 -1236 320 -1230 326 -1198 
L 774 586 
C 838 229 1190 -64 1568 -64 
C 2483 -64 3347 650 3347 1599 
C 3347 1841 3290 2083 3155 2287 
C 3078 2408 2982 2497 2880 2574 
C 3341 2815 3622 3200 3622 3701 
z
M 2509 2580 
C 2406 2542 2304 2529 2182 2529 
C 2093 2529 2010 2523 1894 2561 
C 1958 2606 2054 2618 2189 2618 
C 2304 2618 2419 2606 2509 2580 
z
M 3290 3758 
C 3290 3410 3117 2903 2701 2669 
C 2579 2718 2413 2752 2272 2752 
C 2138 2752 1754 2752 1754 2555 
C 1754 2389 2106 2389 2214 2389 
C 2381 2389 2528 2432 2682 2484 
C 2886 2318 2976 2101 2976 1783 
C 2976 1413 2874 1115 2752 841 
C 2541 369 2042 64 1600 64 
C 1133 64 890 432 890 864 
C 890 922 890 1005 915 1099 
L 1331 2771 
C 1542 3603 2080 4353 2701 4353 
C 3162 4353 3290 4036 3290 3758 
z
" transform="scale(0.015625)"/>
      </defs>
      <use xlink:href="#CMMI12-1b" transform="scale(0.996264)"/>
      <use xlink:href="#CMMI12-c" transform="translate(55.445461 -14.943915)scale(0.697382)"/>
     </g>
    </g>
   </g>
   <g id="matplotlib.axis_2">
    <g id="ytick_1">
     <g id="line2d_7">
      <defs>
       <path id="m373aecde38" d="M 0 0 
L -3.5 0 
" style="stroke: #000000; stroke-width: 0.8"/>
      </defs>
      <g>
       <use xlink:href="#m373aecde38" x="68.069542" y="213.554543" style="stroke: #000000; stroke-width: 0.8"/>
      </g>
     </g>
     <g id="text_8">
      <!-- $\mathdefault{0}$ -->
      <g transform="translate(49.646923 222.20267)scale(0.25 -0.25)">
       <use xlink:href="#CMR17-30" transform="scale(0.996264)"/>
      </g>
     </g>
    </g>
    <g id="ytick_2">
     <g id="line2d_8">
      <g>
       <use xlink:href="#m373aecde38" x="68.069542" y="123.305117" style="stroke: #000000; stroke-width: 0.8"/>
      </g>
     </g>
     <g id="text_9">
      <!-- $\mathdefault{50}$ -->
      <g transform="translate(38.224304 131.953244)scale(0.25 -0.25)">
       <use xlink:href="#CMR17-35" transform="scale(0.996264)"/>
       <use xlink:href="#CMR17-30" transform="translate(45.690477 0)scale(0.996264)"/>
      </g>
     </g>
    </g>
    <g id="ytick_3">
     <g id="line2d_9">
      <g>
       <use xlink:href="#m373aecde38" x="68.069542" y="33.055691" style="stroke: #000000; stroke-width: 0.8"/>
      </g>
     </g>
     <g id="text_10">
      <!-- $\mathdefault{100}$ -->
      <g transform="translate(26.801684 41.703818)scale(0.25 -0.25)">
       <use xlink:href="#CMR17-31" transform="scale(0.996264)"/>
       <use xlink:href="#CMR17-30" transform="translate(45.690477 0)scale(0.996264)"/>
       <use xlink:href="#CMR17-30" transform="translate(91.380954 0)scale(0.996264)"/>
      </g>
     </g>
    </g>
    <g id="text_11">
     <!-- $R_{forc}$ -->
     <g transform="translate(16.530797 149.138851)rotate(-90)scale(0.22 -0.22)">
      <defs>
       <path id="CMMI12-52" d="M 2355 3924 
C 2413 4160 2438 4160 2688 4160 
L 3149 4160 
C 3699 4160 4109 3995 4109 3499 
C 4109 3175 3942 2240 2656 2240 
L 1933 2240 
L 2355 3924 
z
M 3245 2169 
C 4038 2341 4659 2851 4659 3398 
C 4659 3894 4154 4352 3264 4352 
L 1530 4352 
C 1402 4352 1344 4352 1344 4226 
C 1344 4160 1389 4160 1510 4160 
C 1894 4160 1894 4112 1894 4045 
C 1894 4033 1894 3994 1869 3899 
L 1005 479 
C 947 256 934 192 493 192 
C 346 192 301 192 301 71 
C 301 7 371 7 390 7 
C 506 7 640 7 762 7 
L 1517 7 
C 1632 7 1766 7 1882 7 
C 1933 7 2003 7 2003 128 
C 2003 192 1946 192 1850 192 
C 1459 192 1459 243 1459 306 
C 1459 313 1459 357 1472 407 
L 1901 2112 
L 2669 2112 
C 3277 2112 3392 1731 3392 1522 
C 3392 1427 3328 1179 3283 1014 
C 3213 723 3194 652 3194 532 
C 3194 82 3565 -128 3994 -128 
C 4512 -128 4736 501 4736 591 
C 4736 635 4704 654 4666 654 
C 4614 654 4602 616 4589 565 
C 4435 114 4173 0 4013 0 
C 3853 0 3750 70 3750 356 
C 3750 509 3827 1088 3834 1120 
C 3866 1355 3866 1380 3866 1432 
C 3866 1896 3488 2093 3245 2169 
z
" transform="scale(0.015625)"/>
       <path id="CMMI12-66" d="M 2854 2566 
C 2982 2566 3034 2566 3034 2688 
C 3034 2752 2982 2752 2867 2752 
L 2349 2752 
C 2470 3429 2560 3897 2611 4107 
C 2650 4265 2784 4416 2950 4416 
C 3085 4416 3219 4358 3283 4298 
C 3034 4272 2957 4082 2957 3969 
C 2957 3837 3053 3759 3174 3759 
C 3302 3759 3494 3870 3494 4119 
C 3494 4393 3226 4544 2944 4544 
C 2669 4544 2400 4334 2272 4078 
C 2157 3848 2093 3611 1946 2752 
L 1517 2752 
C 1395 2752 1331 2752 1331 2637 
C 1331 2566 1370 2566 1498 2566 
L 1907 2566 
C 1792 1976 1530 542 1382 -137 
C 1274 -689 1178 -1152 858 -1152 
C 838 -1152 653 -1152 538 -1031 
C 864 -1005 864 -726 864 -720 
C 864 -593 768 -517 646 -517 
C 518 -517 326 -625 326 -867 
C 326 -1140 608 -1280 858 -1280 
C 1510 -1280 1779 -118 1850 199 
C 1965 688 2278 2376 2310 2566 
L 2854 2566 
z
" transform="scale(0.015625)"/>
       <path id="CMMI12-6f" d="M 2918 1756 
C 2918 2363 2522 2816 1939 2816 
C 1094 2816 262 1897 262 996 
C 262 390 659 -64 1242 -64 
C 2093 -64 2918 856 2918 1756 
z
M 1248 64 
C 928 64 691 319 691 766 
C 691 1060 845 1712 1024 2031 
C 1312 2523 1670 2689 1933 2689 
C 2246 2689 2490 2433 2490 1986 
C 2490 1731 2355 1047 2112 658 
C 1850 230 1498 64 1248 64 
z
" transform="scale(0.015625)"/>
       <path id="CMMI12-72" d="M 2490 2612 
C 2291 2574 2189 2433 2189 2293 
C 2189 2139 2310 2088 2400 2088 
C 2579 2088 2726 2242 2726 2433 
C 2726 2638 2528 2816 2208 2816 
C 1952 2816 1658 2701 1389 2312 
C 1344 2650 1088 2816 832 2816 
C 582 2816 454 2625 378 2484 
C 269 2254 173 1871 173 1839 
C 173 1814 198 1782 243 1782 
C 294 1782 301 1788 339 1935 
C 435 2318 557 2689 813 2689 
C 966 2689 1011 2580 1011 2395 
C 1011 2254 947 2005 902 1807 
L 723 1118 
C 698 996 627 709 595 594 
C 550 428 480 128 480 96 
C 480 6 550 -64 646 -64 
C 717 -64 838 -19 877 109 
C 896 160 1133 1124 1171 1271 
C 1203 1411 1242 1546 1274 1686 
C 1299 1775 1325 1878 1344 1961 
C 1363 2018 1536 2331 1696 2472 
C 1773 2542 1939 2689 2202 2689 
C 2304 2689 2406 2670 2490 2612 
z
" transform="scale(0.015625)"/>
       <path id="CMMI12-63" d="M 2502 2431 
C 2381 2431 2323 2431 2234 2355 
C 2195 2323 2125 2227 2125 2125 
C 2125 1997 2221 1920 2342 1920 
C 2496 1920 2669 2044 2669 2292 
C 2669 2588 2374 2816 1933 2816 
C 1094 2816 256 1903 256 996 
C 256 441 602 -64 1254 -64 
C 2125 -64 2675 622 2675 706 
C 2675 744 2637 776 2611 776 
C 2592 776 2586 770 2528 713 
C 2118 162 1510 64 1267 64 
C 826 64 685 446 685 764 
C 685 988 794 1605 1024 2039 
C 1190 2338 1536 2682 1939 2682 
C 2022 2682 2374 2682 2502 2431 
z
" transform="scale(0.015625)"/>
      </defs>
      <use xlink:href="#CMMI12-52" transform="scale(0.996264)"/>
      <use xlink:href="#CMMI12-66" transform="translate(74.250826 -14.943915)scale(0.697382)"/>
      <use xlink:href="#CMMI12-6f" transform="translate(115.354849 -14.943915)scale(0.697382)"/>
      <use xlink:href="#CMMI12-72" transform="translate(148.181411 -14.943915)scale(0.697382)"/>
      <use xlink:href="#CMMI12-63" transform="translate(180.85068 -14.943915)scale(0.697382)"/>
     </g>
    </g>
   </g>
   <g id="patch_3">
    <path d="M 68.069542 228.265199 
L 68.069542 23.76 
" style="fill: none; stroke: #000000; stroke-width: 0.8; stroke-linejoin: miter; stroke-linecap: square"/>
   </g>
   <g id="patch_4">
    <path d="M 552.24 228.265199 
L 552.24 23.76 
" style="fill: none; stroke: #000000; stroke-width: 0.8; stroke-linejoin: miter; stroke-linecap: square"/>
   </g>
   <g id="patch_5">
    <path d="M 68.069542 228.265199 
L 552.24 228.265199 
" style="fill: none; stroke: #000000; stroke-width: 0.8; stroke-linejoin: miter; stroke-linecap: square"/>
   </g>
   <g id="patch_6">
    <path d="M 68.069542 23.76 
L 552.24 23.76 
" style="fill: none; stroke: #000000; stroke-width: 0.8; stroke-linejoin: miter; stroke-linecap: square"/>
   </g>
  </g>
 </g>
 <defs>
  <clipPath id="pdf03f43112">
   <rect x="68.069542" y="23.76" width="484.170458" height="204.505199"/>
  </clipPath>
 </defs>
</svg>
