<?xml version="1.0" encoding="utf-8" standalone="no"?>
<!DOCTYPE svg PUBLIC "-//W3C//DTD SVG 1.1//EN"
  "http://www.w3.org/Graphics/SVG/1.1/DTD/svg11.dtd">
<svg xmlns:xlink="http://www.w3.org/1999/xlink" width="576pt" height="288pt" viewBox="0 0 576 288" xmlns="http://www.w3.org/2000/svg" version="1.1">
 <metadata>
  <rdf:RDF xmlns:dc="http://purl.org/dc/elements/1.1/" xmlns:cc="http://creativecommons.org/ns#" xmlns:rdf="http://www.w3.org/1999/02/22-rdf-syntax-ns#">
   <cc:Work>
    <dc:type rdf:resource="http://purl.org/dc/dcmitype/StillImage"/>
    <dc:date>2023-11-02T17:13:08.018736</dc:date>
    <dc:format>image/svg+xml</dc:format>
    <dc:creator>
     <cc:Agent>
      <dc:title>Matplotlib v3.5.3, https://matplotlib.org/</dc:title>
     </cc:Agent>
    </dc:creator>
   </cc:Work>
  </rdf:RDF>
 </metadata>
 <defs>
  <style type="text/css">*{stroke-linejoin: round; stroke-linecap: butt}</style>
 </defs>
 <g id="figure_1">
  <g id="patch_1">
   <path d="M 0 288 
L 576 288 
L 576 0 
L 0 0 
z
" style="fill: #ffffff"/>
  </g>
  <g id="axes_1">
   <g id="patch_2">
    <path d="M 67.011042 228.265199 
L 552.24 228.265199 
L 552.24 23.76 
L 67.011042 23.76 
z
" style="fill: #ffffff"/>
   </g>
   <g id="PathCollection_1">
    <defs>
     <path id="m4cd9b3c20c" d="M 0 3 
C 0.795609 3 1.55874 2.683901 2.12132 2.12132 
C 2.683901 1.55874 3 0.795609 3 0 
C 3 -0.795609 2.683901 -1.55874 2.12132 -2.12132 
C 1.55874 -2.683901 0.795609 -3 0 -3 
C -0.795609 -3 -1.55874 -2.683901 -2.12132 -2.12132 
C -2.683901 -1.55874 -3 -0.795609 -3 0 
C -3 0.795609 -2.683901 1.55874 -2.12132 2.12132 
C -1.55874 2.683901 -0.795609 3 0 3 
z
" style="stroke: #808080"/>
    </defs>
    <g clip-path="url(#pf408049c8b)">
     <use xlink:href="#m4cd9b3c20c" x="89.155965" y="186.479715" style="fill: #808080; stroke: #808080"/>
    </g>
   </g>
   <g id="PathCollection_2">
    <defs>
     <path id="m8a115c601d" d="M 0 3 
C 0.795609 3 1.55874 2.683901 2.12132 2.12132 
C 2.683901 1.55874 3 0.795609 3 0 
C 3 -0.795609 2.683901 -1.55874 2.12132 -2.12132 
C 1.55874 -2.683901 0.795609 -3 0 -3 
C -0.795609 -3 -1.55874 -2.683901 -2.12132 -2.12132 
C -2.683901 -1.55874 -3 -0.795609 -3 0 
C -3 0.795609 -2.683901 1.55874 -2.12132 2.12132 
C -1.55874 2.683901 -0.795609 3 0 3 
z
" style="stroke: #0000ff"/>
    </defs>
    <g clip-path="url(#pf408049c8b)">
     <use xlink:href="#m8a115c601d" x="89.066904" y="177.454773" style="fill: #0000ff; stroke: #0000ff"/>
    </g>
   </g>
   <g id="PathCollection_3">
    <defs>
     <path id="mcabb8c18f1" d="M 0 3 
C 0.795609 3 1.55874 2.683901 2.12132 2.12132 
C 2.683901 1.55874 3 0.795609 3 0 
C 3 -0.795609 2.683901 -1.55874 2.12132 -2.12132 
C 1.55874 -2.683901 0.795609 -3 0 -3 
C -0.795609 -3 -1.55874 -2.683901 -2.12132 -2.12132 
C -2.683901 -1.55874 -3 -0.795609 -3 0 
C -3 0.795609 -2.683901 1.55874 -2.12132 2.12132 
C -1.55874 2.683901 -0.795609 3 0 3 
z
" style="stroke: #008000"/>
    </defs>
    <g clip-path="url(#pf408049c8b)">
     <use xlink:href="#mcabb8c18f1" x="91.38248" y="177.454773" style="fill: #008000; stroke: #008000"/>
    </g>
   </g>
   <g id="PathCollection_4">
    <defs>
     <path id="m3d47defc25" d="M 0 3 
C 0.795609 3 1.55874 2.683901 2.12132 2.12132 
C 2.683901 1.55874 3 0.795609 3 0 
C 3 -0.795609 2.683901 -1.55874 2.12132 -2.12132 
C 1.55874 -2.683901 0.795609 -3 0 -3 
C -0.795609 -3 -1.55874 -2.683901 -2.12132 -2.12132 
C -2.683901 -1.55874 -3 -0.795609 -3 0 
C -3 0.795609 -2.683901 1.55874 -2.12132 2.12132 
C -1.55874 2.683901 -0.795609 3 0 3 
z
" style="stroke: #ffa500"/>
    </defs>
    <g clip-path="url(#pf408049c8b)">
     <use xlink:href="#m3d47defc25" x="94.410541" y="195.504658" style="fill: #ffa500; stroke: #ffa500"/>
    </g>
   </g>
   <g id="PathCollection_5">
    <defs>
     <path id="m42417ee265" d="M 0 3 
C 0.795609 3 1.55874 2.683901 2.12132 2.12132 
C 2.683901 1.55874 3 0.795609 3 0 
C 3 -0.795609 2.683901 -1.55874 2.12132 -2.12132 
C 1.55874 -2.683901 0.795609 -3 0 -3 
C -0.795609 -3 -1.55874 -2.683901 -2.12132 -2.12132 
C -2.683901 -1.55874 -3 -0.795609 -3 0 
C -3 0.795609 -2.683901 1.55874 -2.12132 2.12132 
C -1.55874 2.683901 -0.795609 3 0 3 
z
" style="stroke: #ff0000"/>
    </defs>
    <g clip-path="url(#pf408049c8b)">
     <use xlink:href="#m42417ee265" x="89.690328" y="195.504658" style="fill: #ff0000; stroke: #ff0000"/>
    </g>
   </g>
   <g id="PathCollection_6">
    <defs>
     <path id="md05898f686" d="M 0 3 
C 0.795609 3 1.55874 2.683901 2.12132 2.12132 
C 2.683901 1.55874 3 0.795609 3 0 
C 3 -0.795609 2.683901 -1.55874 2.12132 -2.12132 
C 1.55874 -2.683901 0.795609 -3 0 -3 
C -0.795609 -3 -1.55874 -2.683901 -2.12132 -2.12132 
C -2.683901 -1.55874 -3 -0.795609 -3 0 
C -3 0.795609 -2.683901 1.55874 -2.12132 2.12132 
C -1.55874 2.683901 -0.795609 3 0 3 
z
" style="stroke: #800080"/>
    </defs>
    <g clip-path="url(#pf408049c8b)">
     <use xlink:href="#md05898f686" x="89.779389" y="87.205347" style="fill: #800080; stroke: #800080"/>
    </g>
   </g>
   <g id="PathCollection_7">
    <g clip-path="url(#pf408049c8b)">
     <use xlink:href="#m4cd9b3c20c" x="89.155965" y="211.388557" style="fill: #808080; stroke: #808080"/>
    </g>
   </g>
   <g id="PathCollection_8">
    <g clip-path="url(#pf408049c8b)">
     <use xlink:href="#m8a115c601d" x="89.066904" y="209.042072" style="fill: #0000ff; stroke: #0000ff"/>
    </g>
   </g>
   <g id="PathCollection_9">
    <g clip-path="url(#pf408049c8b)">
     <use xlink:href="#mcabb8c18f1" x="91.38248" y="209.944566" style="fill: #008000; stroke: #008000"/>
    </g>
   </g>
   <g id="PathCollection_10">
    <g clip-path="url(#pf408049c8b)"/>
   </g>
   <g id="PathCollection_11">
    <g clip-path="url(#pf408049c8b)"/>
   </g>
   <g id="PathCollection_12">
    <g clip-path="url(#pf408049c8b)"/>
   </g>
   <g id="PathCollection_13">
    <g clip-path="url(#pf408049c8b)">
     <use xlink:href="#m4cd9b3c20c" x="89.155965" y="177.454773" style="fill: #808080; stroke: #808080"/>
    </g>
   </g>
   <g id="PathCollection_14">
    <g clip-path="url(#pf408049c8b)">
     <use xlink:href="#m8a115c601d" x="89.066904" y="69.155461" style="fill: #0000ff; stroke: #0000ff"/>
    </g>
   </g>
   <g id="PathCollection_15">
    <g clip-path="url(#pf408049c8b)">
     <use xlink:href="#mcabb8c18f1" x="91.38248" y="202.724612" style="fill: #008000; stroke: #008000"/>
    </g>
   </g>
   <g id="PathCollection_16">
    <g clip-path="url(#pf408049c8b)">
     <use xlink:href="#m3d47defc25" x="94.410541" y="209.944566" style="fill: #ffa500; stroke: #ffa500"/>
    </g>
   </g>
   <g id="PathCollection_17">
    <g clip-path="url(#pf408049c8b)">
     <use xlink:href="#m42417ee265" x="89.690328" y="206.334589" style="fill: #ff0000; stroke: #ff0000"/>
    </g>
   </g>
   <g id="PathCollection_18">
    <g clip-path="url(#pf408049c8b)"/>
   </g>
   <g id="PathCollection_19">
    <g clip-path="url(#pf408049c8b)">
     <use xlink:href="#m4cd9b3c20c" x="89.155965" y="177.454773" style="fill: #808080; stroke: #808080"/>
    </g>
   </g>
   <g id="PathCollection_20">
    <g clip-path="url(#pf408049c8b)">
     <use xlink:href="#m8a115c601d" x="89.066904" y="177.454773" style="fill: #0000ff; stroke: #0000ff"/>
    </g>
   </g>
   <g id="PathCollection_21">
    <g clip-path="url(#pf408049c8b)">
     <use xlink:href="#mcabb8c18f1" x="91.38248" y="208.139577" style="fill: #008000; stroke: #008000"/>
    </g>
   </g>
   <g id="PathCollection_22">
    <g clip-path="url(#pf408049c8b)">
     <use xlink:href="#m3d47defc25" x="94.410541" y="211.749554" style="fill: #ffa500; stroke: #ffa500"/>
    </g>
   </g>
   <g id="PathCollection_23">
    <g clip-path="url(#pf408049c8b)">
     <use xlink:href="#m42417ee265" x="89.690328" y="200.919623" style="fill: #ff0000; stroke: #ff0000"/>
    </g>
   </g>
   <g id="PathCollection_24">
    <g clip-path="url(#pf408049c8b)">
     <use xlink:href="#md05898f686" x="89.779389" y="209.944566" style="fill: #800080; stroke: #800080"/>
    </g>
   </g>
   <g id="PathCollection_25">
    <g clip-path="url(#pf408049c8b)">
     <use xlink:href="#m4cd9b3c20c" x="89.155965" y="33.055691" style="fill: #808080; stroke: #808080"/>
    </g>
   </g>
   <g id="PathCollection_26">
    <g clip-path="url(#pf408049c8b)">
     <use xlink:href="#m8a115c601d" x="89.066904" y="69.155461" style="fill: #0000ff; stroke: #0000ff"/>
    </g>
   </g>
   <g id="PathCollection_27">
    <g clip-path="url(#pf408049c8b)">
     <use xlink:href="#mcabb8c18f1" x="91.38248" y="199.114635" style="fill: #008000; stroke: #008000"/>
    </g>
   </g>
   <g id="PathCollection_28">
    <g clip-path="url(#pf408049c8b)">
     <use xlink:href="#m3d47defc25" x="94.410541" y="195.504658" style="fill: #ffa500; stroke: #ffa500"/>
    </g>
   </g>
   <g id="PathCollection_29">
    <g clip-path="url(#pf408049c8b)">
     <use xlink:href="#m42417ee265" x="89.690328" y="159.404887" style="fill: #ff0000; stroke: #ff0000"/>
    </g>
   </g>
   <g id="PathCollection_30">
    <g clip-path="url(#pf408049c8b)">
     <use xlink:href="#md05898f686" x="89.779389" y="204.5296" style="fill: #800080; stroke: #800080"/>
    </g>
   </g>
   <g id="PathCollection_31">
    <g clip-path="url(#pf408049c8b)">
     <use xlink:href="#m4cd9b3c20c" x="89.155965" y="218.969509" style="fill: #808080; stroke: #808080"/>
    </g>
   </g>
   <g id="PathCollection_32">
    <g clip-path="url(#pf408049c8b)">
     <use xlink:href="#m8a115c601d" x="89.066904" y="214.09604" style="fill: #0000ff; stroke: #0000ff"/>
    </g>
   </g>
   <g id="PathCollection_33">
    <g clip-path="url(#pf408049c8b)">
     <use xlink:href="#mcabb8c18f1" x="91.38248" y="213.735042" style="fill: #008000; stroke: #008000"/>
    </g>
   </g>
   <g id="PathCollection_34">
    <g clip-path="url(#pf408049c8b)">
     <use xlink:href="#m3d47defc25" x="94.410541" y="211.930053" style="fill: #ffa500; stroke: #ffa500"/>
    </g>
   </g>
   <g id="PathCollection_35">
    <g clip-path="url(#pf408049c8b)">
     <use xlink:href="#m42417ee265" x="89.690328" y="209.042072" style="fill: #ff0000; stroke: #ff0000"/>
    </g>
   </g>
   <g id="PathCollection_36">
    <g clip-path="url(#pf408049c8b)">
     <use xlink:href="#md05898f686" x="89.779389" y="195.504658" style="fill: #800080; stroke: #800080"/>
    </g>
   </g>
   <g id="PathCollection_37">
    <g clip-path="url(#pf408049c8b)">
     <use xlink:href="#m4cd9b3c20c" x="351.172299" y="186.479715" style="fill: #808080; stroke: #808080"/>
    </g>
   </g>
   <g id="PathCollection_38">
    <g clip-path="url(#pf408049c8b)">
     <use xlink:href="#m8a115c601d" x="352.062905" y="177.454773" style="fill: #0000ff; stroke: #0000ff"/>
    </g>
   </g>
   <g id="PathCollection_39">
    <g clip-path="url(#pf408049c8b)">
     <use xlink:href="#mcabb8c18f1" x="358.119027" y="177.454773" style="fill: #008000; stroke: #008000"/>
    </g>
   </g>
   <g id="PathCollection_40">
    <g clip-path="url(#pf408049c8b)">
     <use xlink:href="#m3d47defc25" x="367.20321" y="195.504658" style="fill: #ffa500; stroke: #ffa500"/>
    </g>
   </g>
   <g id="PathCollection_41">
    <g clip-path="url(#pf408049c8b)">
     <use xlink:href="#m42417ee265" x="360.07836" y="195.504658" style="fill: #ff0000; stroke: #ff0000"/>
    </g>
   </g>
   <g id="PathCollection_42">
    <g clip-path="url(#pf408049c8b)">
     <use xlink:href="#md05898f686" x="530.184138" y="87.205347" style="fill: #800080; stroke: #800080"/>
    </g>
   </g>
   <g id="PathCollection_43">
    <g clip-path="url(#pf408049c8b)">
     <use xlink:href="#m4cd9b3c20c" x="351.172299" y="211.388557" style="fill: #808080; stroke: #808080"/>
    </g>
   </g>
   <g id="PathCollection_44">
    <g clip-path="url(#pf408049c8b)">
     <use xlink:href="#m8a115c601d" x="352.062905" y="209.042072" style="fill: #0000ff; stroke: #0000ff"/>
    </g>
   </g>
   <g id="PathCollection_45">
    <g clip-path="url(#pf408049c8b)">
     <use xlink:href="#mcabb8c18f1" x="358.119027" y="209.944566" style="fill: #008000; stroke: #008000"/>
    </g>
   </g>
   <g id="PathCollection_46">
    <g clip-path="url(#pf408049c8b)"/>
   </g>
   <g id="PathCollection_47">
    <g clip-path="url(#pf408049c8b)"/>
   </g>
   <g id="PathCollection_48">
    <g clip-path="url(#pf408049c8b)"/>
   </g>
   <g id="PathCollection_49">
    <g clip-path="url(#pf408049c8b)">
     <use xlink:href="#m4cd9b3c20c" x="351.172299" y="177.454773" style="fill: #808080; stroke: #808080"/>
    </g>
   </g>
   <g id="PathCollection_50">
    <g clip-path="url(#pf408049c8b)">
     <use xlink:href="#m8a115c601d" x="352.062905" y="69.155461" style="fill: #0000ff; stroke: #0000ff"/>
    </g>
   </g>
   <g id="PathCollection_51">
    <g clip-path="url(#pf408049c8b)">
     <use xlink:href="#mcabb8c18f1" x="358.119027" y="202.724612" style="fill: #008000; stroke: #008000"/>
    </g>
   </g>
   <g id="PathCollection_52">
    <g clip-path="url(#pf408049c8b)">
     <use xlink:href="#m3d47defc25" x="367.20321" y="209.944566" style="fill: #ffa500; stroke: #ffa500"/>
    </g>
   </g>
   <g id="PathCollection_53">
    <g clip-path="url(#pf408049c8b)">
     <use xlink:href="#m42417ee265" x="360.07836" y="206.334589" style="fill: #ff0000; stroke: #ff0000"/>
    </g>
   </g>
   <g id="PathCollection_54">
    <g clip-path="url(#pf408049c8b)"/>
   </g>
   <g id="PathCollection_55">
    <g clip-path="url(#pf408049c8b)">
     <use xlink:href="#m4cd9b3c20c" x="351.172299" y="177.454773" style="fill: #808080; stroke: #808080"/>
    </g>
   </g>
   <g id="PathCollection_56">
    <g clip-path="url(#pf408049c8b)">
     <use xlink:href="#m8a115c601d" x="352.062905" y="177.454773" style="fill: #0000ff; stroke: #0000ff"/>
    </g>
   </g>
   <g id="PathCollection_57">
    <g clip-path="url(#pf408049c8b)">
     <use xlink:href="#mcabb8c18f1" x="358.119027" y="208.139577" style="fill: #008000; stroke: #008000"/>
    </g>
   </g>
   <g id="PathCollection_58">
    <g clip-path="url(#pf408049c8b)">
     <use xlink:href="#m3d47defc25" x="367.20321" y="211.749554" style="fill: #ffa500; stroke: #ffa500"/>
    </g>
   </g>
   <g id="PathCollection_59">
    <g clip-path="url(#pf408049c8b)">
     <use xlink:href="#m42417ee265" x="360.07836" y="200.919623" style="fill: #ff0000; stroke: #ff0000"/>
    </g>
   </g>
   <g id="PathCollection_60">
    <g clip-path="url(#pf408049c8b)">
     <use xlink:href="#md05898f686" x="530.184138" y="209.944566" style="fill: #800080; stroke: #800080"/>
    </g>
   </g>
   <g id="PathCollection_61">
    <g clip-path="url(#pf408049c8b)">
     <use xlink:href="#m4cd9b3c20c" x="351.172299" y="33.055691" style="fill: #808080; stroke: #808080"/>
    </g>
   </g>
   <g id="PathCollection_62">
    <g clip-path="url(#pf408049c8b)">
     <use xlink:href="#m8a115c601d" x="352.062905" y="69.155461" style="fill: #0000ff; stroke: #0000ff"/>
    </g>
   </g>
   <g id="PathCollection_63">
    <g clip-path="url(#pf408049c8b)">
     <use xlink:href="#mcabb8c18f1" x="358.119027" y="199.114635" style="fill: #008000; stroke: #008000"/>
    </g>
   </g>
   <g id="PathCollection_64">
    <g clip-path="url(#pf408049c8b)">
     <use xlink:href="#m3d47defc25" x="367.20321" y="195.504658" style="fill: #ffa500; stroke: #ffa500"/>
    </g>
   </g>
   <g id="PathCollection_65">
    <g clip-path="url(#pf408049c8b)">
     <use xlink:href="#m42417ee265" x="360.07836" y="159.404887" style="fill: #ff0000; stroke: #ff0000"/>
    </g>
   </g>
   <g id="PathCollection_66">
    <g clip-path="url(#pf408049c8b)">
     <use xlink:href="#md05898f686" x="530.184138" y="204.5296" style="fill: #800080; stroke: #800080"/>
    </g>
   </g>
   <g id="PathCollection_67">
    <g clip-path="url(#pf408049c8b)">
     <use xlink:href="#m4cd9b3c20c" x="351.172299" y="218.969509" style="fill: #808080; stroke: #808080"/>
    </g>
   </g>
   <g id="PathCollection_68">
    <g clip-path="url(#pf408049c8b)">
     <use xlink:href="#m8a115c601d" x="352.062905" y="214.09604" style="fill: #0000ff; stroke: #0000ff"/>
    </g>
   </g>
   <g id="PathCollection_69">
    <g clip-path="url(#pf408049c8b)">
     <use xlink:href="#mcabb8c18f1" x="358.119027" y="213.735042" style="fill: #008000; stroke: #008000"/>
    </g>
   </g>
   <g id="PathCollection_70">
    <g clip-path="url(#pf408049c8b)">
     <use xlink:href="#m3d47defc25" x="367.20321" y="211.930053" style="fill: #ffa500; stroke: #ffa500"/>
    </g>
   </g>
   <g id="PathCollection_71">
    <g clip-path="url(#pf408049c8b)">
     <use xlink:href="#m42417ee265" x="360.07836" y="209.042072" style="fill: #ff0000; stroke: #ff0000"/>
    </g>
   </g>
   <g id="PathCollection_72">
    <g clip-path="url(#pf408049c8b)">
     <use xlink:href="#md05898f686" x="530.184138" y="195.504658" style="fill: #800080; stroke: #800080"/>
    </g>
   </g>
   <g id="PathCollection_73">
    <g clip-path="url(#pf408049c8b)">
     <use xlink:href="#m4cd9b3c20c" x="103.940027" y="186.479715" style="fill: #808080; stroke: #808080"/>
    </g>
   </g>
   <g id="PathCollection_74">
    <g clip-path="url(#pf408049c8b)">
     <use xlink:href="#m8a115c601d" x="101.713511" y="177.454773" style="fill: #0000ff; stroke: #0000ff"/>
    </g>
   </g>
   <g id="PathCollection_75">
    <g clip-path="url(#pf408049c8b)">
     <use xlink:href="#mcabb8c18f1" x="132.528485" y="177.454773" style="fill: #008000; stroke: #008000"/>
    </g>
   </g>
   <g id="PathCollection_76">
    <g clip-path="url(#pf408049c8b)">
     <use xlink:href="#m3d47defc25" x="175.722884" y="195.504658" style="fill: #ffa500; stroke: #ffa500"/>
    </g>
   </g>
   <g id="PathCollection_77">
    <g clip-path="url(#pf408049c8b)">
     <use xlink:href="#m42417ee265" x="115.161665" y="195.504658" style="fill: #ff0000; stroke: #ff0000"/>
    </g>
   </g>
   <g id="PathCollection_78">
    <g clip-path="url(#pf408049c8b)">
     <use xlink:href="#md05898f686" x="124.067726" y="87.205347" style="fill: #800080; stroke: #800080"/>
    </g>
   </g>
   <g id="PathCollection_79">
    <g clip-path="url(#pf408049c8b)">
     <use xlink:href="#m4cd9b3c20c" x="103.940027" y="211.388557" style="fill: #808080; stroke: #808080"/>
    </g>
   </g>
   <g id="PathCollection_80">
    <g clip-path="url(#pf408049c8b)">
     <use xlink:href="#m8a115c601d" x="101.713511" y="209.042072" style="fill: #0000ff; stroke: #0000ff"/>
    </g>
   </g>
   <g id="PathCollection_81">
    <g clip-path="url(#pf408049c8b)">
     <use xlink:href="#mcabb8c18f1" x="132.528485" y="209.944566" style="fill: #008000; stroke: #008000"/>
    </g>
   </g>
   <g id="PathCollection_82">
    <g clip-path="url(#pf408049c8b)"/>
   </g>
   <g id="PathCollection_83">
    <g clip-path="url(#pf408049c8b)"/>
   </g>
   <g id="PathCollection_84">
    <g clip-path="url(#pf408049c8b)"/>
   </g>
   <g id="PathCollection_85">
    <g clip-path="url(#pf408049c8b)">
     <use xlink:href="#m4cd9b3c20c" x="103.940027" y="177.454773" style="fill: #808080; stroke: #808080"/>
    </g>
   </g>
   <g id="PathCollection_86">
    <g clip-path="url(#pf408049c8b)">
     <use xlink:href="#m8a115c601d" x="101.713511" y="69.155461" style="fill: #0000ff; stroke: #0000ff"/>
    </g>
   </g>
   <g id="PathCollection_87">
    <g clip-path="url(#pf408049c8b)">
     <use xlink:href="#mcabb8c18f1" x="132.528485" y="202.724612" style="fill: #008000; stroke: #008000"/>
    </g>
   </g>
   <g id="PathCollection_88">
    <g clip-path="url(#pf408049c8b)">
     <use xlink:href="#m3d47defc25" x="175.722884" y="209.944566" style="fill: #ffa500; stroke: #ffa500"/>
    </g>
   </g>
   <g id="PathCollection_89">
    <g clip-path="url(#pf408049c8b)">
     <use xlink:href="#m42417ee265" x="115.161665" y="206.334589" style="fill: #ff0000; stroke: #ff0000"/>
    </g>
   </g>
   <g id="PathCollection_90">
    <g clip-path="url(#pf408049c8b)"/>
   </g>
   <g id="PathCollection_91">
    <g clip-path="url(#pf408049c8b)">
     <use xlink:href="#m4cd9b3c20c" x="103.940027" y="177.454773" style="fill: #808080; stroke: #808080"/>
    </g>
   </g>
   <g id="PathCollection_92">
    <g clip-path="url(#pf408049c8b)">
     <use xlink:href="#m8a115c601d" x="101.713511" y="177.454773" style="fill: #0000ff; stroke: #0000ff"/>
    </g>
   </g>
   <g id="PathCollection_93">
    <g clip-path="url(#pf408049c8b)">
     <use xlink:href="#mcabb8c18f1" x="132.528485" y="208.139577" style="fill: #008000; stroke: #008000"/>
    </g>
   </g>
   <g id="PathCollection_94">
    <g clip-path="url(#pf408049c8b)">
     <use xlink:href="#m3d47defc25" x="175.722884" y="211.749554" style="fill: #ffa500; stroke: #ffa500"/>
    </g>
   </g>
   <g id="PathCollection_95">
    <g clip-path="url(#pf408049c8b)">
     <use xlink:href="#m42417ee265" x="115.161665" y="200.919623" style="fill: #ff0000; stroke: #ff0000"/>
    </g>
   </g>
   <g id="PathCollection_96">
    <g clip-path="url(#pf408049c8b)">
     <use xlink:href="#md05898f686" x="124.067726" y="209.944566" style="fill: #800080; stroke: #800080"/>
    </g>
   </g>
   <g id="PathCollection_97">
    <g clip-path="url(#pf408049c8b)">
     <use xlink:href="#m4cd9b3c20c" x="103.940027" y="33.055691" style="fill: #808080; stroke: #808080"/>
    </g>
   </g>
   <g id="PathCollection_98">
    <g clip-path="url(#pf408049c8b)">
     <use xlink:href="#m8a115c601d" x="101.713511" y="69.155461" style="fill: #0000ff; stroke: #0000ff"/>
    </g>
   </g>
   <g id="PathCollection_99">
    <g clip-path="url(#pf408049c8b)">
     <use xlink:href="#mcabb8c18f1" x="132.528485" y="199.114635" style="fill: #008000; stroke: #008000"/>
    </g>
   </g>
   <g id="PathCollection_100">
    <g clip-path="url(#pf408049c8b)">
     <use xlink:href="#m3d47defc25" x="175.722884" y="195.504658" style="fill: #ffa500; stroke: #ffa500"/>
    </g>
   </g>
   <g id="PathCollection_101">
    <g clip-path="url(#pf408049c8b)">
     <use xlink:href="#m42417ee265" x="115.161665" y="159.404887" style="fill: #ff0000; stroke: #ff0000"/>
    </g>
   </g>
   <g id="PathCollection_102">
    <g clip-path="url(#pf408049c8b)">
     <use xlink:href="#md05898f686" x="124.067726" y="204.5296" style="fill: #800080; stroke: #800080"/>
    </g>
   </g>
   <g id="PathCollection_103">
    <g clip-path="url(#pf408049c8b)">
     <use xlink:href="#m4cd9b3c20c" x="103.940027" y="218.969509" style="fill: #808080; stroke: #808080"/>
    </g>
   </g>
   <g id="PathCollection_104">
    <g clip-path="url(#pf408049c8b)">
     <use xlink:href="#m8a115c601d" x="101.713511" y="214.09604" style="fill: #0000ff; stroke: #0000ff"/>
    </g>
   </g>
   <g id="PathCollection_105">
    <g clip-path="url(#pf408049c8b)">
     <use xlink:href="#mcabb8c18f1" x="132.528485" y="213.735042" style="fill: #008000; stroke: #008000"/>
    </g>
   </g>
   <g id="PathCollection_106">
    <g clip-path="url(#pf408049c8b)">
     <use xlink:href="#m3d47defc25" x="175.722884" y="211.930053" style="fill: #ffa500; stroke: #ffa500"/>
    </g>
   </g>
   <g id="PathCollection_107">
    <g clip-path="url(#pf408049c8b)">
     <use xlink:href="#m42417ee265" x="115.161665" y="209.042072" style="fill: #ff0000; stroke: #ff0000"/>
    </g>
   </g>
   <g id="PathCollection_108">
    <g clip-path="url(#pf408049c8b)">
     <use xlink:href="#md05898f686" x="124.067726" y="195.504658" style="fill: #800080; stroke: #800080"/>
    </g>
   </g>
   <g id="PathCollection_109">
    <g clip-path="url(#pf408049c8b)">
     <use xlink:href="#m4cd9b3c20c" x="175.722884" y="186.479715" style="fill: #808080; stroke: #808080"/>
    </g>
   </g>
   <g id="PathCollection_110">
    <g clip-path="url(#pf408049c8b)">
     <use xlink:href="#m8a115c601d" x="175.722884" y="177.454773" style="fill: #0000ff; stroke: #0000ff"/>
    </g>
   </g>
   <g id="PathCollection_111">
    <g clip-path="url(#pf408049c8b)">
     <use xlink:href="#mcabb8c18f1" x="179.285309" y="177.454773" style="fill: #008000; stroke: #008000"/>
    </g>
   </g>
   <g id="PathCollection_112">
    <g clip-path="url(#pf408049c8b)">
     <use xlink:href="#m3d47defc25" x="188.19137" y="195.504658" style="fill: #ffa500; stroke: #ffa500"/>
    </g>
   </g>
   <g id="PathCollection_113">
    <g clip-path="url(#pf408049c8b)">
     <use xlink:href="#m42417ee265" x="182.847733" y="195.504658" style="fill: #ff0000; stroke: #ff0000"/>
    </g>
   </g>
   <g id="PathCollection_114">
    <g clip-path="url(#pf408049c8b)">
     <use xlink:href="#md05898f686" x="352.953511" y="87.205347" style="fill: #800080; stroke: #800080"/>
    </g>
   </g>
   <g id="PathCollection_115">
    <g clip-path="url(#pf408049c8b)">
     <use xlink:href="#m4cd9b3c20c" x="175.722884" y="211.388557" style="fill: #808080; stroke: #808080"/>
    </g>
   </g>
   <g id="PathCollection_116">
    <g clip-path="url(#pf408049c8b)">
     <use xlink:href="#m8a115c601d" x="175.722884" y="209.042072" style="fill: #0000ff; stroke: #0000ff"/>
    </g>
   </g>
   <g id="PathCollection_117">
    <g clip-path="url(#pf408049c8b)">
     <use xlink:href="#mcabb8c18f1" x="179.285309" y="209.944566" style="fill: #008000; stroke: #008000"/>
    </g>
   </g>
   <g id="PathCollection_118">
    <g clip-path="url(#pf408049c8b)"/>
   </g>
   <g id="PathCollection_119">
    <g clip-path="url(#pf408049c8b)"/>
   </g>
   <g id="PathCollection_120">
    <g clip-path="url(#pf408049c8b)"/>
   </g>
   <g id="PathCollection_121">
    <g clip-path="url(#pf408049c8b)">
     <use xlink:href="#m4cd9b3c20c" x="175.722884" y="177.454773" style="fill: #808080; stroke: #808080"/>
    </g>
   </g>
   <g id="PathCollection_122">
    <g clip-path="url(#pf408049c8b)">
     <use xlink:href="#m8a115c601d" x="175.722884" y="69.155461" style="fill: #0000ff; stroke: #0000ff"/>
    </g>
   </g>
   <g id="PathCollection_123">
    <g clip-path="url(#pf408049c8b)">
     <use xlink:href="#mcabb8c18f1" x="179.285309" y="202.724612" style="fill: #008000; stroke: #008000"/>
    </g>
   </g>
   <g id="PathCollection_124">
    <g clip-path="url(#pf408049c8b)">
     <use xlink:href="#m3d47defc25" x="188.19137" y="209.944566" style="fill: #ffa500; stroke: #ffa500"/>
    </g>
   </g>
   <g id="PathCollection_125">
    <g clip-path="url(#pf408049c8b)">
     <use xlink:href="#m42417ee265" x="182.847733" y="206.334589" style="fill: #ff0000; stroke: #ff0000"/>
    </g>
   </g>
   <g id="PathCollection_126">
    <g clip-path="url(#pf408049c8b)"/>
   </g>
   <g id="PathCollection_127">
    <g clip-path="url(#pf408049c8b)">
     <use xlink:href="#m4cd9b3c20c" x="175.722884" y="177.454773" style="fill: #808080; stroke: #808080"/>
    </g>
   </g>
   <g id="PathCollection_128">
    <g clip-path="url(#pf408049c8b)">
     <use xlink:href="#m8a115c601d" x="175.722884" y="177.454773" style="fill: #0000ff; stroke: #0000ff"/>
    </g>
   </g>
   <g id="PathCollection_129">
    <g clip-path="url(#pf408049c8b)">
     <use xlink:href="#mcabb8c18f1" x="179.285309" y="208.139577" style="fill: #008000; stroke: #008000"/>
    </g>
   </g>
   <g id="PathCollection_130">
    <g clip-path="url(#pf408049c8b)">
     <use xlink:href="#m3d47defc25" x="188.19137" y="211.749554" style="fill: #ffa500; stroke: #ffa500"/>
    </g>
   </g>
   <g id="PathCollection_131">
    <g clip-path="url(#pf408049c8b)">
     <use xlink:href="#m42417ee265" x="182.847733" y="200.919623" style="fill: #ff0000; stroke: #ff0000"/>
    </g>
   </g>
   <g id="PathCollection_132">
    <g clip-path="url(#pf408049c8b)">
     <use xlink:href="#md05898f686" x="352.953511" y="209.944566" style="fill: #800080; stroke: #800080"/>
    </g>
   </g>
   <g id="PathCollection_133">
    <g clip-path="url(#pf408049c8b)">
     <use xlink:href="#m4cd9b3c20c" x="175.722884" y="33.055691" style="fill: #808080; stroke: #808080"/>
    </g>
   </g>
   <g id="PathCollection_134">
    <g clip-path="url(#pf408049c8b)">
     <use xlink:href="#m8a115c601d" x="175.722884" y="69.155461" style="fill: #0000ff; stroke: #0000ff"/>
    </g>
   </g>
   <g id="PathCollection_135">
    <g clip-path="url(#pf408049c8b)">
     <use xlink:href="#mcabb8c18f1" x="179.285309" y="199.114635" style="fill: #008000; stroke: #008000"/>
    </g>
   </g>
   <g id="PathCollection_136">
    <g clip-path="url(#pf408049c8b)">
     <use xlink:href="#m3d47defc25" x="188.19137" y="195.504658" style="fill: #ffa500; stroke: #ffa500"/>
    </g>
   </g>
   <g id="PathCollection_137">
    <g clip-path="url(#pf408049c8b)">
     <use xlink:href="#m42417ee265" x="182.847733" y="159.404887" style="fill: #ff0000; stroke: #ff0000"/>
    </g>
   </g>
   <g id="PathCollection_138">
    <g clip-path="url(#pf408049c8b)">
     <use xlink:href="#md05898f686" x="352.953511" y="204.5296" style="fill: #800080; stroke: #800080"/>
    </g>
   </g>
   <g id="PathCollection_139">
    <g clip-path="url(#pf408049c8b)">
     <use xlink:href="#m4cd9b3c20c" x="175.722884" y="218.969509" style="fill: #808080; stroke: #808080"/>
    </g>
   </g>
   <g id="PathCollection_140">
    <g clip-path="url(#pf408049c8b)">
     <use xlink:href="#m8a115c601d" x="175.722884" y="214.09604" style="fill: #0000ff; stroke: #0000ff"/>
    </g>
   </g>
   <g id="PathCollection_141">
    <g clip-path="url(#pf408049c8b)">
     <use xlink:href="#mcabb8c18f1" x="179.285309" y="213.735042" style="fill: #008000; stroke: #008000"/>
    </g>
   </g>
   <g id="PathCollection_142">
    <g clip-path="url(#pf408049c8b)">
     <use xlink:href="#m3d47defc25" x="188.19137" y="211.930053" style="fill: #ffa500; stroke: #ffa500"/>
    </g>
   </g>
   <g id="PathCollection_143">
    <g clip-path="url(#pf408049c8b)">
     <use xlink:href="#m42417ee265" x="182.847733" y="209.042072" style="fill: #ff0000; stroke: #ff0000"/>
    </g>
   </g>
   <g id="PathCollection_144">
    <g clip-path="url(#pf408049c8b)">
     <use xlink:href="#md05898f686" x="352.953511" y="195.504658" style="fill: #800080; stroke: #800080"/>
    </g>
   </g>
   <g id="PathCollection_145">
    <g clip-path="url(#pf408049c8b)">
     <use xlink:href="#m4cd9b3c20c" x="93.608995" y="186.479715" style="fill: #808080; stroke: #808080"/>
    </g>
   </g>
   <g id="PathCollection_146">
    <g clip-path="url(#pf408049c8b)">
     <use xlink:href="#m8a115c601d" x="92.80745" y="177.454773" style="fill: #0000ff; stroke: #0000ff"/>
    </g>
   </g>
   <g id="PathCollection_147">
    <g clip-path="url(#pf408049c8b)">
     <use xlink:href="#mcabb8c18f1" x="104.474391" y="177.454773" style="fill: #008000; stroke: #008000"/>
    </g>
   </g>
   <g id="PathCollection_148">
    <g clip-path="url(#pf408049c8b)">
     <use xlink:href="#m3d47defc25" x="122.286514" y="195.504658" style="fill: #ffa500; stroke: #ffa500"/>
    </g>
   </g>
   <g id="PathCollection_149">
    <g clip-path="url(#pf408049c8b)">
     <use xlink:href="#m42417ee265" x="98.240147" y="195.504658" style="fill: #ff0000; stroke: #ff0000"/>
    </g>
   </g>
   <g id="PathCollection_150">
    <g clip-path="url(#pf408049c8b)">
     <use xlink:href="#md05898f686" x="109.818028" y="87.205347" style="fill: #800080; stroke: #800080"/>
    </g>
   </g>
   <g id="matplotlib.axis_1">
    <g id="xtick_1">
     <g id="line2d_1">
      <defs>
       <path id="ma41c6b50c2" d="M 0 0 
L 0 3.5 
" style="stroke: #000000; stroke-width: 0.8"/>
      </defs>
      <g>
       <use xlink:href="#ma41c6b50c2" x="87.552873" y="228.265199" style="stroke: #000000; stroke-width: 0.8"/>
      </g>
     </g>
     <g id="text_1">
      <!-- $\mathdefault{0}$ -->
      <g transform="translate(81.841564 252.561453)scale(0.25 -0.25)">
       <defs>
        <path id="CMR17-30" d="M 2688 2025 
C 2688 2416 2682 3080 2413 3591 
C 2176 4039 1798 4198 1466 4198 
C 1158 4198 768 4058 525 3597 
C 269 3118 243 2524 243 2025 
C 243 1661 250 1106 448 619 
C 723 -39 1216 -128 1466 -128 
C 1760 -128 2208 -7 2470 600 
C 2662 1042 2688 1559 2688 2025 
z
M 1466 -26 
C 1056 -26 813 325 723 812 
C 653 1188 653 1738 653 2096 
C 653 2588 653 2997 736 3387 
C 858 3929 1216 4096 1466 4096 
C 1728 4096 2067 3923 2189 3400 
C 2272 3036 2278 2607 2278 2096 
C 2278 1680 2278 1169 2202 792 
C 2067 95 1690 -26 1466 -26 
z
" transform="scale(0.015625)"/>
       </defs>
       <use xlink:href="#CMR17-30" transform="scale(0.996264)"/>
      </g>
     </g>
    </g>
    <g id="xtick_2">
     <g id="line2d_2">
      <g>
       <use xlink:href="#ma41c6b50c2" x="176.61349" y="228.265199" style="stroke: #000000; stroke-width: 0.8"/>
      </g>
     </g>
     <g id="text_2">
      <!-- $\mathdefault{1}$ -->
      <g transform="translate(170.90218 252.561453)scale(0.25 -0.25)">
       <defs>
        <path id="CMR17-31" d="M 1702 4058 
C 1702 4192 1696 4192 1606 4192 
C 1357 3916 979 3827 621 3827 
C 602 3827 570 3827 563 3808 
C 557 3795 557 3782 557 3648 
C 755 3648 1088 3686 1344 3839 
L 1344 461 
C 1344 236 1331 160 781 160 
L 589 160 
L 589 0 
C 896 0 1216 0 1523 0 
C 1830 0 2150 0 2458 0 
L 2458 160 
L 2266 160 
C 1715 160 1702 230 1702 458 
L 1702 4058 
z
" transform="scale(0.015625)"/>
       </defs>
       <use xlink:href="#CMR17-31" transform="scale(0.996264)"/>
      </g>
     </g>
    </g>
    <g id="xtick_3">
     <g id="line2d_3">
      <g>
       <use xlink:href="#ma41c6b50c2" x="265.674107" y="228.265199" style="stroke: #000000; stroke-width: 0.8"/>
      </g>
     </g>
     <g id="text_3">
      <!-- $\mathdefault{2}$ -->
      <g transform="translate(259.962797 252.561453)scale(0.25 -0.25)">
       <defs>
        <path id="CMR17-32" d="M 2669 989 
L 2554 989 
C 2490 536 2438 459 2413 420 
C 2381 369 1920 369 1830 369 
L 602 369 
C 832 619 1280 1072 1824 1597 
C 2214 1967 2669 2402 2669 3035 
C 2669 3790 2067 4224 1395 4224 
C 691 4224 262 3604 262 3030 
C 262 2780 448 2748 525 2748 
C 589 2748 781 2787 781 3010 
C 781 3207 614 3264 525 3264 
C 486 3264 448 3258 422 3245 
C 544 3790 915 4058 1306 4058 
C 1862 4058 2227 3617 2227 3035 
C 2227 2479 1901 2000 1536 1584 
L 262 146 
L 262 0 
L 2515 0 
L 2669 989 
z
" transform="scale(0.015625)"/>
       </defs>
       <use xlink:href="#CMR17-32" transform="scale(0.996264)"/>
      </g>
     </g>
    </g>
    <g id="xtick_4">
     <g id="line2d_4">
      <g>
       <use xlink:href="#ma41c6b50c2" x="354.734723" y="228.265199" style="stroke: #000000; stroke-width: 0.8"/>
      </g>
     </g>
     <g id="text_4">
      <!-- $\mathdefault{3}$ -->
      <g transform="translate(349.023414 252.561453)scale(0.25 -0.25)">
       <defs>
        <path id="CMR17-33" d="M 1414 2157 
C 1984 2157 2234 1662 2234 1090 
C 2234 320 1824 25 1453 25 
C 1114 25 563 194 390 693 
C 422 680 454 680 486 680 
C 640 680 755 782 755 948 
C 755 1133 614 1216 486 1216 
C 378 1216 211 1165 211 926 
C 211 335 787 -128 1466 -128 
C 2176 -128 2720 430 2720 1085 
C 2720 1707 2208 2157 1600 2227 
C 2086 2328 2554 2756 2554 3329 
C 2554 3820 2048 4179 1472 4179 
C 890 4179 378 3829 378 3329 
C 378 3110 544 3072 627 3072 
C 762 3072 877 3155 877 3321 
C 877 3486 762 3569 627 3569 
C 602 3569 570 3569 544 3557 
C 730 3959 1235 4032 1459 4032 
C 1683 4032 2106 3925 2106 3320 
C 2106 3143 2080 2828 1862 2550 
C 1670 2304 1453 2304 1242 2284 
C 1210 2284 1062 2269 1037 2269 
C 992 2263 966 2257 966 2208 
C 966 2163 973 2157 1101 2157 
L 1414 2157 
z
" transform="scale(0.015625)"/>
       </defs>
       <use xlink:href="#CMR17-33" transform="scale(0.996264)"/>
      </g>
     </g>
    </g>
    <g id="xtick_5">
     <g id="line2d_5">
      <g>
       <use xlink:href="#ma41c6b50c2" x="443.79534" y="228.265199" style="stroke: #000000; stroke-width: 0.8"/>
      </g>
     </g>
     <g id="text_5">
      <!-- $\mathdefault{4}$ -->
      <g transform="translate(438.08403 252.561453)scale(0.25 -0.25)">
       <defs>
        <path id="CMR17-34" d="M 2150 4122 
C 2150 4256 2144 4256 2029 4256 
L 128 1254 
L 128 1088 
L 1779 1088 
L 1779 457 
C 1779 224 1766 160 1318 160 
L 1197 160 
L 1197 0 
C 1402 0 1747 0 1965 0 
C 2182 0 2528 0 2733 0 
L 2733 160 
L 2611 160 
C 2163 160 2150 224 2150 457 
L 2150 1088 
L 2803 1088 
L 2803 1254 
L 2150 1254 
L 2150 4122 
z
M 1798 3703 
L 1798 1254 
L 256 1254 
L 1798 3703 
z
" transform="scale(0.015625)"/>
       </defs>
       <use xlink:href="#CMR17-34" transform="scale(0.996264)"/>
      </g>
     </g>
    </g>
    <g id="xtick_6">
     <g id="line2d_6">
      <g>
       <use xlink:href="#ma41c6b50c2" x="532.855957" y="228.265199" style="stroke: #000000; stroke-width: 0.8"/>
      </g>
     </g>
     <g id="text_6">
      <!-- $\mathdefault{5}$ -->
      <g transform="translate(527.144647 252.561453)scale(0.25 -0.25)">
       <defs>
        <path id="CMR17-35" d="M 730 3692 
C 794 3666 1056 3584 1325 3584 
C 1920 3584 2246 3911 2432 4100 
C 2432 4157 2432 4192 2394 4192 
C 2387 4192 2374 4192 2323 4163 
C 2099 4058 1837 3973 1517 3973 
C 1325 3973 1037 3999 723 4139 
C 653 4171 640 4171 634 4171 
C 602 4171 595 4164 595 4037 
L 595 2203 
C 595 2089 595 2057 659 2057 
C 691 2057 704 2070 736 2114 
C 941 2401 1222 2522 1542 2522 
C 1766 2522 2246 2382 2246 1289 
C 2246 1085 2246 715 2054 421 
C 1894 159 1645 25 1370 25 
C 947 25 518 320 403 814 
C 429 807 480 795 506 795 
C 589 795 749 840 749 1038 
C 749 1210 627 1280 506 1280 
C 358 1280 262 1190 262 1011 
C 262 454 704 -128 1382 -128 
C 2042 -128 2669 440 2669 1264 
C 2669 2030 2170 2624 1549 2624 
C 1222 2624 947 2503 730 2274 
L 730 3692 
z
" transform="scale(0.015625)"/>
       </defs>
       <use xlink:href="#CMR17-35" transform="scale(0.996264)"/>
      </g>
     </g>
    </g>
    <g id="text_7">
     <!-- $\sigma_{\beta_{i}}$ -->
     <g transform="translate(297.398355 274.618981)scale(0.22 -0.22)">
      <defs>
       <path id="CMMI12-1b" d="M 3251 2408 
C 3334 2408 3546 2408 3546 2612 
C 3546 2752 3424 2752 3309 2752 
L 1894 2752 
C 934 2752 243 1686 243 932 
C 243 390 595 -64 1171 -64 
C 1926 -64 2752 747 2752 1705 
C 2752 1954 2694 2196 2541 2408 
L 3251 2408 
z
M 1178 64 
C 851 64 614 313 614 754 
C 614 1137 845 2408 1786 2408 
C 2061 2408 2368 2274 2368 1781 
C 2368 1558 2266 1021 2042 652 
C 1811 275 1466 64 1178 64 
z
" transform="scale(0.015625)"/>
       <path id="CMMI12-c" d="M 3622 3701 
C 3622 4081 3296 4480 2714 4480 
C 1888 4480 1363 3477 1197 2816 
L 186 -1172 
C 173 -1223 211 -1236 243 -1236 
C 288 -1236 320 -1230 326 -1198 
L 774 586 
C 838 229 1190 -64 1568 -64 
C 2483 -64 3347 650 3347 1599 
C 3347 1841 3290 2083 3155 2287 
C 3078 2408 2982 2497 2880 2574 
C 3341 2815 3622 3200 3622 3701 
z
M 2509 2580 
C 2406 2542 2304 2529 2182 2529 
C 2093 2529 2010 2523 1894 2561 
C 1958 2606 2054 2618 2189 2618 
C 2304 2618 2419 2606 2509 2580 
z
M 3290 3758 
C 3290 3410 3117 2903 2701 2669 
C 2579 2718 2413 2752 2272 2752 
C 2138 2752 1754 2752 1754 2555 
C 1754 2389 2106 2389 2214 2389 
C 2381 2389 2528 2432 2682 2484 
C 2886 2318 2976 2101 2976 1783 
C 2976 1413 2874 1115 2752 841 
C 2541 369 2042 64 1600 64 
C 1133 64 890 432 890 864 
C 890 922 890 1005 915 1099 
L 1331 2771 
C 1542 3603 2080 4353 2701 4353 
C 3162 4353 3290 4036 3290 3758 
z
" transform="scale(0.015625)"/>
       <path id="CMMI12-69" d="M 1811 913 
C 1811 945 1786 971 1747 971 
C 1690 971 1683 952 1651 843 
C 1485 262 1222 64 1011 64 
C 934 64 845 83 845 275 
C 845 447 922 639 992 830 
L 1440 2018 
C 1459 2069 1504 2184 1504 2305 
C 1504 2574 1312 2816 998 2816 
C 410 2816 173 1890 173 1839 
C 173 1814 198 1782 243 1782 
C 301 1782 307 1807 333 1896 
C 486 2428 730 2682 979 2682 
C 1037 2682 1146 2682 1146 2478 
C 1146 2312 1062 2101 1011 1961 
L 563 773 
C 525 671 486 568 486 453 
C 486 166 685 -64 992 -64 
C 1581 -64 1811 869 1811 913 
z
M 1760 4013 
C 1760 4109 1683 4224 1542 4224 
C 1395 4224 1229 4083 1229 3917 
C 1229 3758 1363 3707 1440 3707 
C 1613 3707 1760 3873 1760 4013 
z
" transform="scale(0.015625)"/>
      </defs>
      <use xlink:href="#CMMI12-1b" transform="scale(0.996264)"/>
      <use xlink:href="#CMMI12-c" transform="translate(55.445461 -14.943915)scale(0.697382)"/>
      <use xlink:href="#CMMI12-69" transform="translate(93.994794 -25.404611)scale(0.498132)"/>
     </g>
    </g>
   </g>
   <g id="matplotlib.axis_2">
    <g id="ytick_1">
     <g id="line2d_7">
      <defs>
       <path id="m41fd0a5660" d="M 0 0 
L -3.5 0 
" style="stroke: #000000; stroke-width: 0.8"/>
      </defs>
      <g>
       <use xlink:href="#m41fd0a5660" x="67.011042" y="213.554543" style="stroke: #000000; stroke-width: 0.8"/>
      </g>
     </g>
     <g id="text_8">
      <!-- $\mathdefault{0}$ -->
      <g transform="translate(48.588423 222.20267)scale(0.25 -0.25)">
       <use xlink:href="#CMR17-30" transform="scale(0.996264)"/>
      </g>
     </g>
    </g>
    <g id="ytick_2">
     <g id="line2d_8">
      <g>
       <use xlink:href="#m41fd0a5660" x="67.011042" y="123.305117" style="stroke: #000000; stroke-width: 0.8"/>
      </g>
     </g>
     <g id="text_9">
      <!-- $\mathdefault{50}$ -->
      <g transform="translate(37.165804 131.953244)scale(0.25 -0.25)">
       <use xlink:href="#CMR17-35" transform="scale(0.996264)"/>
       <use xlink:href="#CMR17-30" transform="translate(45.690477 0)scale(0.996264)"/>
      </g>
     </g>
    </g>
    <g id="ytick_3">
     <g id="line2d_9">
      <g>
       <use xlink:href="#m41fd0a5660" x="67.011042" y="33.055691" style="stroke: #000000; stroke-width: 0.8"/>
      </g>
     </g>
     <g id="text_10">
      <!-- $\mathdefault{100}$ -->
      <g transform="translate(25.743184 41.703818)scale(0.25 -0.25)">
       <use xlink:href="#CMR17-31" transform="scale(0.996264)"/>
       <use xlink:href="#CMR17-30" transform="translate(45.690477 0)scale(0.996264)"/>
       <use xlink:href="#CMR17-30" transform="translate(91.380954 0)scale(0.996264)"/>
      </g>
     </g>
    </g>
    <g id="text_11">
     <!-- $R_{inert}$ -->
     <g transform="translate(17.479996 151.013649)rotate(-90)scale(0.22 -0.22)">
      <defs>
       <path id="CMMI12-52" d="M 2355 3924 
C 2413 4160 2438 4160 2688 4160 
L 3149 4160 
C 3699 4160 4109 3995 4109 3499 
C 4109 3175 3942 2240 2656 2240 
L 1933 2240 
L 2355 3924 
z
M 3245 2169 
C 4038 2341 4659 2851 4659 3398 
C 4659 3894 4154 4352 3264 4352 
L 1530 4352 
C 1402 4352 1344 4352 1344 4226 
C 1344 4160 1389 4160 1510 4160 
C 1894 4160 1894 4112 1894 4045 
C 1894 4033 1894 3994 1869 3899 
L 1005 479 
C 947 256 934 192 493 192 
C 346 192 301 192 301 71 
C 301 7 371 7 390 7 
C 506 7 640 7 762 7 
L 1517 7 
C 1632 7 1766 7 1882 7 
C 1933 7 2003 7 2003 128 
C 2003 192 1946 192 1850 192 
C 1459 192 1459 243 1459 306 
C 1459 313 1459 357 1472 407 
L 1901 2112 
L 2669 2112 
C 3277 2112 3392 1731 3392 1522 
C 3392 1427 3328 1179 3283 1014 
C 3213 723 3194 652 3194 532 
C 3194 82 3565 -128 3994 -128 
C 4512 -128 4736 501 4736 591 
C 4736 635 4704 654 4666 654 
C 4614 654 4602 616 4589 565 
C 4435 114 4173 0 4013 0 
C 3853 0 3750 70 3750 356 
C 3750 509 3827 1088 3834 1120 
C 3866 1355 3866 1380 3866 1432 
C 3866 1896 3488 2093 3245 2169 
z
" transform="scale(0.015625)"/>
       <path id="CMMI12-6e" d="M 1318 1871 
C 1331 1910 1491 2229 1728 2433 
C 1894 2586 2112 2689 2362 2689 
C 2618 2689 2707 2497 2707 2242 
C 2707 1878 2445 1150 2317 805 
C 2259 651 2227 568 2227 453 
C 2227 166 2426 -64 2733 -64 
C 3328 -64 3552 875 3552 913 
C 3552 945 3526 971 3488 971 
C 3430 971 3424 952 3392 843 
C 3245 319 3002 64 2752 64 
C 2688 64 2586 64 2586 269 
C 2586 429 2656 621 2694 710 
C 2822 1063 3091 1780 3091 2145 
C 3091 2528 2867 2816 2381 2816 
C 1811 2816 1510 2415 1395 2255 
C 1376 2618 1114 2816 832 2816 
C 627 2816 486 2695 378 2478 
C 262 2248 173 1865 173 1839 
C 173 1814 198 1782 243 1782 
C 294 1782 301 1788 339 1935 
C 442 2325 557 2689 813 2689 
C 960 2689 1011 2586 1011 2395 
C 1011 2254 947 2005 902 1807 
L 723 1118 
C 698 996 627 709 595 594 
C 550 428 480 128 480 96 
C 480 6 550 -64 646 -64 
C 723 -64 813 -26 864 70 
C 877 102 934 326 966 453 
L 1107 1028 
L 1318 1871 
z
" transform="scale(0.015625)"/>
       <path id="CMMI12-65" d="M 1146 1479 
C 1318 1479 1754 1479 2061 1595 
C 2547 1783 2592 2158 2592 2274 
C 2592 2558 2349 2816 1926 2816 
C 1254 2816 288 2210 288 1073 
C 288 402 672 -64 1254 -64 
C 2125 -64 2675 609 2675 692 
C 2675 730 2637 762 2611 762 
C 2592 762 2586 756 2528 699 
C 2118 159 1510 64 1267 64 
C 902 64 710 350 710 822 
C 710 911 710 1071 806 1479 
L 1146 1479 
z
M 838 1600 
C 1114 2592 1722 2689 1926 2689 
C 2208 2689 2400 2522 2400 2277 
C 2400 1600 1376 1600 1107 1600 
L 838 1600 
z
" transform="scale(0.015625)"/>
       <path id="CMMI12-72" d="M 2490 2612 
C 2291 2574 2189 2433 2189 2293 
C 2189 2139 2310 2088 2400 2088 
C 2579 2088 2726 2242 2726 2433 
C 2726 2638 2528 2816 2208 2816 
C 1952 2816 1658 2701 1389 2312 
C 1344 2650 1088 2816 832 2816 
C 582 2816 454 2625 378 2484 
C 269 2254 173 1871 173 1839 
C 173 1814 198 1782 243 1782 
C 294 1782 301 1788 339 1935 
C 435 2318 557 2689 813 2689 
C 966 2689 1011 2580 1011 2395 
C 1011 2254 947 2005 902 1807 
L 723 1118 
C 698 996 627 709 595 594 
C 550 428 480 128 480 96 
C 480 6 550 -64 646 -64 
C 717 -64 838 -19 877 109 
C 896 160 1133 1124 1171 1271 
C 1203 1411 1242 1546 1274 1686 
C 1299 1775 1325 1878 1344 1961 
C 1363 2018 1536 2331 1696 2472 
C 1773 2542 1939 2689 2202 2689 
C 2304 2689 2406 2670 2490 2612 
z
" transform="scale(0.015625)"/>
       <path id="CMMI12-74" d="M 1286 2566 
L 1875 2566 
C 1997 2566 2061 2566 2061 2681 
C 2061 2752 2022 2752 1894 2752 
L 1331 2752 
L 1568 3692 
C 1594 3781 1594 3794 1594 3840 
C 1594 3943 1510 4000 1427 4000 
C 1376 4000 1229 3981 1178 3775 
L 928 2752 
L 326 2752 
C 198 2752 141 2752 141 2630 
C 141 2566 186 2566 307 2566 
L 877 2566 
L 454 881 
C 403 658 384 594 384 511 
C 384 211 595 -64 954 -64 
C 1600 -64 1946 868 1946 912 
C 1946 951 1920 970 1882 970 
C 1869 970 1843 970 1830 944 
C 1824 938 1818 931 1773 829 
C 1638 511 1344 64 973 64 
C 781 64 768 224 768 364 
C 768 370 768 492 787 568 
L 1286 2566 
z
" transform="scale(0.015625)"/>
      </defs>
      <use xlink:href="#CMMI12-52" transform="scale(0.996264)"/>
      <use xlink:href="#CMMI12-69" transform="translate(74.250826 -14.943915)scale(0.697382)"/>
      <use xlink:href="#CMMI12-6e" transform="translate(97.545733 -14.943915)scale(0.697382)"/>
      <use xlink:href="#CMMI12-65" transform="translate(138.306576 -14.943915)scale(0.697382)"/>
      <use xlink:href="#CMMI12-72" transform="translate(169.954832 -14.943915)scale(0.697382)"/>
      <use xlink:href="#CMMI12-74" transform="translate(202.624101 -14.943915)scale(0.697382)"/>
     </g>
    </g>
   </g>
   <g id="patch_3">
    <path d="M 67.011042 228.265199 
L 67.011042 23.76 
" style="fill: none; stroke: #000000; stroke-width: 0.8; stroke-linejoin: miter; stroke-linecap: square"/>
   </g>
   <g id="patch_4">
    <path d="M 552.24 228.265199 
L 552.24 23.76 
" style="fill: none; stroke: #000000; stroke-width: 0.8; stroke-linejoin: miter; stroke-linecap: square"/>
   </g>
   <g id="patch_5">
    <path d="M 67.011042 228.265199 
L 552.24 228.265199 
" style="fill: none; stroke: #000000; stroke-width: 0.8; stroke-linejoin: miter; stroke-linecap: square"/>
   </g>
   <g id="patch_6">
    <path d="M 67.011042 23.76 
L 552.24 23.76 
" style="fill: none; stroke: #000000; stroke-width: 0.8; stroke-linejoin: miter; stroke-linecap: square"/>
   </g>
  </g>
 </g>
 <defs>
  <clipPath id="pf408049c8b">
   <rect x="67.011042" y="23.76" width="485.228958" height="204.505199"/>
  </clipPath>
 </defs>
</svg>
